<svg width="22" height="22" viewBox="0 0 22 22" fill="none" xmlns="http://www.w3.org/2000/svg">
<path fill-rule="evenodd" clip-rule="evenodd" d="M0 8.8C0 5.76244 2.46244 3.3 5.5 3.3C5.77557 3.3 6.0464 3.32026 6.3111 3.35939C6.97357 1.40587 8.82266 0 11 0C13.1773 0 15.0264 1.40587 15.6889 3.35939C15.9536 3.32026 16.2245 3.3 16.5 3.3C19.5375 3.3 22 5.76244 22 8.8C22 11.0553 20.6425 12.9936 18.7 13.8424V17.6C18.7 19.6742 18.7 20.7112 18.0556 21.3556C17.4112 22 16.3742 22 14.3 22H7.7C5.62582 22 4.58873 22 3.94437 21.3556C3.3 20.7112 3.3 19.6742 3.3 17.6V13.8424C1.35751 12.9936 0 11.0553 0 8.8ZM7.7 16.775C7.24437 16.775 6.875 17.1444 6.875 17.6C6.875 18.0556 7.24437 18.425 7.7 18.425H14.3C14.7556 18.425 15.125 18.0556 15.125 17.6C15.125 17.1444 14.7556 16.775 14.3 16.775H7.7Z" fill="#1E265E"/>
</svg>
