<svg width="28" height="28" viewBox="0 0 28 28" fill="none" xmlns="http://www.w3.org/2000/svg">
<path fill-rule="evenodd" clip-rule="evenodd" d="M0 11.2C0 7.33401 3.13401 4.2 7 4.2C7.35073 4.2 7.69542 4.22579 8.0323 4.27559C8.87545 1.78928 11.2288 0 14 0C16.7712 0 19.1246 1.78928 19.9676 4.27559C20.3046 4.22579 20.6493 4.2 21 4.2C24.866 4.2 28 7.33401 28 11.2C28 14.0704 26.2723 16.5374 23.8 17.6176V22.4C23.8 25.0398 23.8 26.3598 22.9799 27.1799C22.1598 28 20.8398 28 18.2 28H9.8C7.16013 28 5.8402 28 5.02011 27.1799C4.2 26.3598 4.2 25.0398 4.2 22.4V17.6176C1.72774 16.5374 0 14.0704 0 11.2ZM9.8 21.35C9.22011 21.35 8.75 21.8201 8.75 22.4C8.75 22.9799 9.22011 23.45 9.8 23.45H18.2C18.7799 23.45 19.25 22.9799 19.25 22.4C19.25 21.8201 18.7799 21.35 18.2 21.35H9.8Z" fill="#1E1E1E"/>
</svg>
