<svg width="22" height="22" viewBox="0 0 22 22" fill="none" xmlns="http://www.w3.org/2000/svg">
<path d="M22 11C22 17.0751 17.0751 22 11 22C4.92486 22 0 17.0751 0 11C0 4.92486 4.92486 0 11 0C17.0751 0 22 4.92486 22 11Z" fill="#1E265E"/>
<path fill-rule="evenodd" clip-rule="evenodd" d="M11.0859 5.5C11.5131 5.5 11.8594 5.87514 11.8594 6.33789V10.4595L14.211 13.0072C14.513 13.3344 14.513 13.8649 14.211 14.1921C13.9089 14.5193 13.4193 14.5193 13.1172 14.1921L10.5391 11.3991C10.394 11.242 10.3125 11.0289 10.3125 10.8067V6.33789C10.3125 5.87514 10.6588 5.5 11.0859 5.5Z" fill="white"/>
</svg>
