<svg width="28" height="28" viewBox="0 0 28 28" fill="none" xmlns="http://www.w3.org/2000/svg">
<path d="M28 14C28 21.7319 21.7319 28 14 28C6.26801 28 0 21.7319 0 14C0 6.26801 6.26801 0 14 0C21.7319 0 28 6.26801 28 14Z" fill="#1E1E1E"/>
<path fill-rule="evenodd" clip-rule="evenodd" d="M14.1094 7C14.653 7 15.0938 7.47745 15.0938 8.06641V13.3121L18.0867 16.5546C18.4711 16.9711 18.4711 17.6462 18.0867 18.0626C17.7022 18.4791 17.0791 18.4791 16.6946 18.0626L13.4134 14.5079C13.2287 14.308 13.125 14.0367 13.125 13.7539V8.06641C13.125 7.47745 13.5657 7 14.1094 7Z" fill="white"/>
</svg>
