<svg width="40" height="40" viewBox="0 0 40 40" fill="none" xmlns="http://www.w3.org/2000/svg">
<path fill-rule="evenodd" clip-rule="evenodd" d="M22.35 18.5879C23.0661 18.5878 23.7631 18.3587 24.3373 17.9347C24.9115 17.5107 25.3324 16.9144 25.5373 16.2344H28.05C28.302 16.2344 28.5436 16.1352 28.7218 15.9587C28.8999 15.7821 29 15.5427 29 15.293C29 15.0433 28.8999 14.8039 28.7218 14.6274C28.5436 14.4508 28.302 14.3516 28.05 14.3516H25.5373C25.332 13.672 24.911 13.0761 24.3368 12.6525C23.7627 12.2288 23.0659 12 22.35 12C21.6341 12 20.9373 12.2288 20.3632 12.6525C19.789 13.0761 19.368 13.672 19.1628 14.3516H10.95C10.698 14.3516 10.4564 14.4508 10.2782 14.6274C10.1001 14.8039 10 15.0433 10 15.293C10 15.5427 10.1001 15.7821 10.2782 15.9587C10.4564 16.1352 10.698 16.2344 10.95 16.2344H19.1628C19.3676 16.9144 19.7885 17.5107 20.3627 17.9347C20.9369 18.3587 21.6339 18.5878 22.35 18.5879ZM10.95 23.7656C10.698 23.7656 10.4564 23.8648 10.2782 24.0413C10.1001 24.2179 10 24.4573 10 24.707C10 24.9567 10.1001 25.1961 10.2782 25.3726C10.4564 25.5492 10.698 25.6484 10.95 25.6484H12.9878C13.193 26.328 13.614 26.9239 14.1882 27.3475C14.7623 27.7712 15.4591 28 16.175 28C16.8909 28 17.5877 27.7712 18.1618 27.3475C18.736 26.9239 19.157 26.328 19.3623 25.6484H28.05C28.302 25.6484 28.5436 25.5492 28.7218 25.3726C28.8999 25.1961 29 24.9567 29 24.707C29 24.4573 28.8999 24.2179 28.7218 24.0413C28.5436 23.8648 28.302 23.7656 28.05 23.7656H19.3623C19.157 23.086 18.736 22.4901 18.1618 22.0664C17.5877 21.6428 16.8909 21.414 16.175 21.414C15.4591 21.414 14.7623 21.6428 14.1882 22.0664C13.614 22.4901 13.193 23.086 12.9878 23.7656H10.95Z" fill="#1E265E"/>
</svg>
