<svg width="28" height="32" viewBox="0 0 28 32" fill="none" xmlns="http://www.w3.org/2000/svg">
<path d="M16.1945 31.6729C21.3431 30.6418 28 26.9414 28 17.3729C28 8.66528 21.6204 2.86691 17.0331 0.202631C16.0152 -0.388582 14.8235 0.388924 14.8235 1.56526V4.57412C14.8235 6.94677 13.8251 11.2776 11.0506 13.079C9.63417 13.9987 8.10439 12.6222 7.93224 10.9432L7.79087 9.56448C7.62654 7.9617 5.99268 6.98871 4.71052 7.96592C2.40713 9.72146 0 12.7956 0 17.3729C0 29.0745 8.71111 32 13.0666 32C13.3199 32 13.5863 31.9924 13.8635 31.9765C11.7127 31.7928 8.23529 30.4596 8.23529 26.1486C8.23529 22.7764 10.6978 20.495 12.5687 19.386C13.0719 19.0877 13.6609 19.4751 13.6609 20.0596V21.0291C13.6609 21.7711 13.9481 22.931 14.6318 23.725C15.4056 24.6235 16.5412 23.6822 16.6328 22.5006C16.6618 22.1279 17.037 21.8902 17.3602 22.079C18.4164 22.6957 19.7647 24.0132 19.7647 26.1486C19.7647 29.5187 17.9052 31.0689 16.1945 31.6729Z" fill="#1E1E1E"/>
</svg>
