<svg width="22" height="25" fill="none" xmlns="http://www.w3.org/2000/svg"><path d="M12.724 24.744C16.77 23.94 22 21.048 22 13.573 22 6.77 16.988 2.24 13.383.158c-.8-.462-1.736.146-1.736 1.065v2.35c0 1.854-.784 5.238-2.964 6.645-1.113.719-2.315-.357-2.45-1.669L6.12 7.472C5.992 6.22 4.71 5.46 3.701 6.223 1.891 7.595 0 9.997 0 13.573 0 22.715 6.844 25 10.267 25c.199 0 .408-.006.626-.018-1.69-.144-4.422-1.185-4.422-4.553 0-2.635 1.934-4.417 3.404-5.284.396-.233.858.07.858.527v.757c0 .58.226 1.486.763 2.106.608.702 1.5-.033 1.573-.956.022-.292.317-.477.571-.33.83.482 1.89 1.511 1.89 3.18 0 2.633-1.462 3.844-2.806 4.315z" fill="#1E265E"/></svg>