<svg width="40" height="35" viewBox="0 0 40 35" fill="none" xmlns="http://www.w3.org/2000/svg">
<path d="M20.3633 4.84863C24.7359 0.230419 29.51 -0.315066 33.1641 1.38281C36.852 3.09648 39.5 7.13755 39.5 11.8984C39.4999 16.6882 37.558 20.3643 34.8682 23.4434C32.1611 26.542 28.7354 28.9974 25.7637 31.3789C24.7208 32.2146 23.7284 33.0003 22.7539 33.5791C21.7792 34.158 20.8709 34.5 20 34.5C19.1291 34.5 18.2208 34.158 17.2461 33.5791C16.2716 33.0003 15.2792 32.2146 14.2363 31.3789C11.2646 28.9974 7.83888 26.542 5.13184 23.4434C2.44199 20.3643 0.500095 16.6882 0.5 11.8984C0.5 7.13755 3.14799 3.09648 6.83594 1.38281C10.49 -0.315051 15.264 0.230428 19.6367 4.84863L20 5.23242L20.3633 4.84863Z" fill="white" stroke="#1E265E"/>
</svg>
