<svg width="38" height="34" viewBox="0 0 38 34" fill="none" xmlns="http://www.w3.org/2000/svg">
<path d="M19.3672 4.71582C23.5161 0.235146 28.0361 -0.287072 31.4912 1.35449C34.9837 3.01394 37.5 6.93286 37.5 11.5586C37.4999 16.2107 35.6557 19.7801 33.1025 22.7686C30.5324 25.7769 27.2804 28.1602 24.4561 30.4746C23.465 31.2867 22.5235 32.0482 21.5996 32.6094C20.675 33.171 19.8181 33.5 19 33.5C18.1819 33.5 17.325 33.171 16.4004 32.6094C15.4765 32.0482 14.5349 31.2867 13.5439 30.4746C10.7196 28.1602 7.46763 25.7769 4.89746 22.7686C2.3443 19.7801 0.500119 16.2107 0.5 11.5586C0.5 6.93286 3.0163 3.01394 6.50879 1.35449C9.96391 -0.287058 14.4839 0.235155 18.6328 4.71582L19 5.1123L19.3672 4.71582Z" fill="#f2acb9" stroke="#ffffff"/>
</svg>
