<svg width="24" height="20" viewBox="0 0 24 20" fill="none" xmlns="http://www.w3.org/2000/svg">
<path d="M12.3545 2.92676C14.9248 0.341375 17.7073 0.0524508 19.8223 0.988281C21.9647 1.93641 23.5 4.1702 23.5 6.79883C23.5 9.46213 22.3691 11.5119 20.7783 13.2461C19.1703 14.9991 17.1382 16.3865 15.3428 17.7568C14.7154 18.2357 14.1304 18.6751 13.5596 18.998C12.9889 19.3209 12.4771 19.5 12 19.5C11.5229 19.5 11.0111 19.3209 10.4404 18.998C9.86958 18.6751 9.28461 18.2357 8.65723 17.7568C6.8618 16.3865 4.82967 14.9991 3.22168 13.2461C1.63091 11.5119 0.5 9.46212 0.5 6.79883C0.500031 4.1702 2.03526 1.93641 4.17773 0.988281C6.29271 0.0524588 9.0752 0.341378 11.6455 2.92676L12 3.2832L12.3545 2.92676Z" fill="#DD78A7" stroke="#1E265E"/>
</svg>
