<svg width="24" height="24" viewBox="0 0 24 24" fill="none" xmlns="http://www.w3.org/2000/svg">
<g clip-path="url(#clip0_45_49)">
<path d="M12 2.162C15.204 2.162 15.584 2.174 16.849 2.232C18.157 2.292 19.504 2.59 20.457 3.543C21.419 4.505 21.708 5.839 21.768 7.151C21.826 8.416 21.838 8.796 21.838 12C21.838 15.204 21.826 15.584 21.768 16.849C21.709 18.15 21.404 19.51 20.457 20.457C19.495 21.419 18.162 21.708 16.849 21.768C15.584 21.826 15.204 21.838 12 21.838C8.796 21.838 8.416 21.826 7.151 21.768C5.86 21.709 4.482 21.397 3.543 20.457C2.586 19.5 2.292 18.153 2.232 16.849C2.174 15.584 2.162 15.204 2.162 12C2.162 8.796 2.174 8.416 2.232 7.151C2.291 5.855 2.599 4.487 3.543 3.543C4.503 2.583 5.842 2.292 7.151 2.232C8.416 2.174 8.796 2.162 12 2.162ZM12 0C8.741 0 8.332 0.014 7.052 0.072C5.197 0.157 3.355 0.673 2.014 2.014C0.668 3.36 0.157 5.198 0.072 7.052C0.014 8.332 0 8.741 0 12C0 15.259 0.014 15.668 0.072 16.948C0.157 18.801 0.675 20.648 2.014 21.986C3.359 23.331 5.2 23.843 7.052 23.928C8.332 23.986 8.741 24 12 24C15.259 24 15.668 23.986 16.948 23.928C18.802 23.843 20.646 23.326 21.986 21.986C23.333 20.639 23.843 18.802 23.928 16.948C23.986 15.668 24 15.259 24 12C24 8.741 23.986 8.332 23.928 7.052C23.843 5.197 23.326 3.354 21.986 2.014C20.643 0.671 18.797 0.156 16.948 0.072C15.668 0.014 15.259 0 12 0Z" fill="black"/>
<path d="M12 5.838C8.59701 5.838 5.83801 8.597 5.83801 12C5.83801 15.403 8.59701 18.162 12 18.162C15.403 18.162 18.162 15.403 18.162 12C18.162 8.597 15.403 5.838 12 5.838ZM12 16C9.79101 16 8.00001 14.209 8.00001 12C8.00001 9.791 9.79101 8 12 8C14.209 8 16 9.791 16 12C16 14.209 14.209 16 12 16Z" fill="black"/>
<path d="M18.4059 7.034C19.2012 7.034 19.8459 6.38929 19.8459 5.594C19.8459 4.79871 19.2012 4.154 18.4059 4.154C17.6107 4.154 16.9659 4.79871 16.9659 5.594C16.9659 6.38929 17.6107 7.034 18.4059 7.034Z" fill="black"/>
</g>
<defs>
<clipPath id="clip0_45_49">
<rect width="24" height="24" fill="white"/>
</clipPath>
</defs>
</svg>
