<svg width="261" height="72" viewBox="0 0 261 72" fill="none" xmlns="http://www.w3.org/2000/svg">
<g clip-path="url(#clip0_214_302)">
<path d="M173.575 55.4366C173.575 54.8152 174.033 54.4132 174.747 54.4132H178.154C181.248 54.4132 183.336 56.1127 183.336 58.5981C183.336 61.0834 181.267 62.856 178.154 62.856H177.677C176.487 62.856 175.883 63.4773 175.883 64.4642V67.2419C175.883 68.0277 175.425 68.5211 174.729 68.5211C174.033 68.5211 173.575 68.0277 173.575 67.2419V55.4366ZM175.883 58.9635C175.883 60.2062 176.524 60.8093 177.732 60.8093H178.025C179.729 60.8093 180.974 60.1148 180.974 58.5981C180.974 57.0813 179.729 56.3868 178.025 56.3868H177.732C176.524 56.3868 175.883 56.9716 175.883 58.2326V58.9818V58.9635ZM183.336 67.4429C183.336 68.1008 183.794 68.5211 184.49 68.5211C185.186 68.5211 185.369 68.2287 185.607 67.6074L186.028 66.4926C186.358 65.5972 186.962 65.1951 187.603 65.1951H191.357C192.016 65.1951 192.602 65.6154 192.932 66.4926L193.353 67.6074C193.591 68.2287 194.013 68.5211 194.47 68.5211C195.166 68.5211 195.624 68.0825 195.624 67.4429C195.624 66.8033 195.587 67.0408 195.514 66.8216L191.028 55.1625C190.753 54.4498 190.112 54.1025 189.508 54.1025C188.903 54.1025 188.262 54.4498 187.988 55.1625L183.501 66.8216C183.428 67.0408 183.391 67.2601 183.391 67.4429H183.336ZM187.713 62.1433C187.713 61.924 187.768 61.723 187.878 61.4306L188.72 59.0732C188.885 58.6163 189.16 58.397 189.471 58.397C189.782 58.397 190.057 58.6163 190.222 59.0732L191.064 61.4306C191.156 61.723 191.229 61.924 191.229 62.1433C191.229 62.7281 190.899 63.1484 190.002 63.1484H188.94C188.043 63.1484 187.713 62.7281 187.713 62.1433ZM194.855 55.4731C194.855 54.8335 195.313 54.4132 196.045 54.4132H205.147C205.879 54.4132 206.337 54.8518 206.337 55.4731C206.337 56.0945 205.879 56.533 205.147 56.533H203.627C202.418 56.533 201.759 57.1544 201.759 58.5432V67.2053C201.759 68.0094 201.301 68.5028 200.587 68.5028C199.873 68.5028 199.415 68.0094 199.415 67.2053V58.5432C199.415 57.1361 198.756 56.533 197.547 56.533H196.027C195.294 56.533 194.837 56.0945 194.837 55.4731H194.855ZM208.48 67.2419C208.48 68.0277 208.938 68.5211 209.633 68.5211C210.329 68.5211 210.787 68.0277 210.787 67.2419V64.0987C210.787 63.2032 211.3 62.8377 211.941 62.8377H212.106C212.527 62.8377 212.93 63.0936 213.186 63.4773L216.19 67.8815C216.464 68.3018 216.83 68.5394 217.27 68.5394C217.709 68.5394 218.332 68.0459 218.332 67.4612C218.332 66.8764 218.259 66.9677 218.076 66.7119L216.08 63.9159C215.842 63.587 215.75 63.2946 215.75 63.0753C215.75 62.5819 216.19 62.2347 216.702 61.8509C217.636 61.1565 218.643 60.2428 218.643 58.5067C218.643 56.7706 216.739 54.4315 213.607 54.4315H209.633C208.919 54.4315 208.48 54.8518 208.48 55.4548V67.2601V67.2419ZM210.769 58.7808V58.196C210.769 56.9168 211.446 56.3868 212.472 56.3868H213.461C215.164 56.3868 216.244 57.0265 216.244 58.4884C216.244 59.9504 215.091 60.6265 213.388 60.6265H212.454C211.428 60.6265 210.751 60.0966 210.751 58.8173L210.769 58.7808ZM221.555 67.2053V55.4366C221.555 54.8152 221.995 54.4132 222.709 54.4132H230.199C230.913 54.4132 231.353 54.8335 231.353 55.4366C231.353 56.0396 230.913 56.4599 230.199 56.4599H225.474C224.54 56.4599 223.863 57.0082 223.863 58.0681V58.5067C223.863 59.5483 224.54 60.1148 225.474 60.1148H229.137C229.851 60.1148 230.29 60.5351 230.29 61.1382C230.29 61.7413 229.851 62.1616 229.137 62.1616H225.621C224.687 62.1616 223.881 62.7281 223.881 63.8976V64.4459C223.881 65.6154 224.687 66.1819 225.621 66.1819H230.217C230.931 66.1819 231.371 66.6023 231.371 67.2053C231.371 67.8084 230.931 68.2287 230.217 68.2287H222.727C222.013 68.2287 221.574 67.8084 221.574 67.2053H221.555ZM232.708 61.3209C232.708 57.063 235.913 54.1208 239.667 54.1208C243.421 54.1208 246.626 57.063 246.626 61.3209C246.626 65.5789 243.421 68.5211 239.667 68.5211C235.913 68.5211 232.708 65.5789 232.708 61.3209ZM235.308 61.3209C235.308 64.318 237.085 66.2368 239.667 66.2368C242.249 66.2368 244.025 64.318 244.025 61.3209C244.025 58.3239 242.249 56.4051 239.667 56.4051C237.085 56.4051 235.308 58.3057 235.308 61.3209ZM249.391 67.2419C249.391 68.0277 249.849 68.5211 250.545 68.5211C251.24 68.5211 251.698 68.0277 251.698 67.2419V61.193C251.698 60.462 252.138 60.1148 252.596 60.1148C253.053 60.1148 253.255 60.3159 253.475 60.6631L257.284 67.0043C257.796 67.8815 258.273 68.5211 259.243 68.5211C260.214 68.5211 260.855 67.8449 260.855 66.7667V55.4C260.855 54.6142 260.397 54.1208 259.701 54.1208C259.005 54.1208 258.547 54.6142 258.547 55.4V61.4489C258.547 62.1798 258.108 62.5271 257.65 62.5271C257.192 62.5271 256.991 62.326 256.771 61.9788L252.962 55.6376C252.449 54.7604 251.973 54.1208 251.002 54.1208C250.032 54.1208 249.391 54.797 249.391 55.8752V67.2419Z" fill="#1E265E"/>
</g>
<g clip-path="url(#clip1_214_302)">
<path d="M24.1089 36.9416C24.1089 36.9416 24.0904 36.9559 24.0844 36.9629C23.9918 37.0343 23.4181 37.4835 23.466 37.923C23.4794 38.0609 23.5289 38.5334 24.5171 38.4167C24.9761 38.3636 25.616 38.0823 25.9857 37.1497C25.9857 37.1497 27.6268 34.3476 27.2081 28.4827C27.2081 28.4827 26.3548 19.0976 17.7093 20.1007C11.0465 20.87 5.70739 27.2669 2.79497 34.4737C0.631605 39.881 -0.21917 45.7535 0.237955 50.0977C0.870883 56.1416 4.25966 62.2767 10.8521 61.5114C16.125 60.902 19.3266 53.5793 19.7197 48.2945C19.7339 48.0692 20.0123 47.9937 20.1374 48.1845C20.7006 49.0497 21.7655 50.9554 22.7128 52.9472C22.7629 53.0499 22.7305 53.1706 22.644 53.2351C21.2067 54.3616 19.7625 55.8582 18.6471 57.514C16.9092 60.051 16.0587 62.761 16.2674 64.7296C16.5256 67.1707 18.2323 68.8345 20.2789 68.597C24.9651 68.0545 26.2485 61.8598 25.8544 58.126C25.7083 56.7612 25.3709 55.2887 24.7306 53.7875C24.6865 53.6778 24.7182 53.5439 24.8243 53.485C25.4474 53.1253 26.0822 52.8706 26.6622 52.6719C26.675 52.6712 26.6878 52.6705 26.7006 52.6697C27.6692 52.5475 27.8041 51.9191 27.7679 51.5845C27.7415 51.3153 27.4569 51.1404 26.7939 51.2184C25.9969 51.3109 25.1163 51.6524 24.2448 52.1717C24.1327 52.2376 23.9897 52.1997 23.9325 52.0842C23.2994 50.8533 22.0174 48.5838 20.1146 46.0863C20.1146 46.0863 19.6562 45.5187 19.1271 45.5824C18.9295 45.607 18.5002 45.995 18.4872 48.399C18.4872 48.399 18.4876 48.4056 18.4879 48.4122C18.4638 48.6975 16.8339 59.3225 10.7641 60.0244C4.82821 60.712 2.33985 54.8812 1.866 50.3334C1.42193 46.1205 2.17193 40.5377 4.16085 35.3585C6.83822 28.4491 11.8053 22.3049 18.0027 21.589C23.6706 20.9302 25.344 24.7219 25.7646 28.7249L25.7652 28.738C25.7776 28.9816 26.0514 35.0266 24.1096 36.9548L24.1089 36.9416ZM24.3238 58.1686C24.5458 60.275 24.2351 62.3727 23.4456 64.386C22.8174 66.04 21.396 67.0995 20.14 67.245C18.9539 67.3798 17.8797 66.6828 17.6845 64.8521C17.499 63.0869 18.2423 60.667 19.6309 58.5794C20.5541 57.179 21.8309 55.7977 23.1605 54.6972C23.2837 54.5977 23.4661 54.6531 23.5185 54.8019C23.9228 55.9471 24.2096 57.0528 24.3305 58.1748L24.3238 58.1686Z" fill="#1E265E"/>
<path d="M92.525 43.6641C92.2717 42.4527 91.7015 40.416 88.2172 23.9148C88.2162 23.8951 88.2088 23.8758 88.2018 23.863C88.1444 23.7411 87.8914 23.2944 87.3695 23.351C86.8284 23.4088 86.615 23.7441 86.5385 24.2561L86.0211 30.3505C85.8488 32.3841 85.0212 42.2142 83.2068 42.4051C81.3925 42.5961 79.4779 37.8952 79.0052 32.9789C78.8282 31.1237 78.7784 29.3798 78.8725 27.1925C78.8712 27.1662 78.8826 27.1392 78.8877 27.1125C78.9163 27.045 78.9721 26.8835 78.95 26.7002C78.8992 26.2022 78.4537 25.9974 78.0909 26.0382C77.4481 26.1084 77.486 26.8577 77.5156 27.4426C77.5162 27.4558 77.5166 27.4623 77.5172 27.4755C77.4094 29.3933 76.6505 31.2171 75.4454 32.6976L75.1923 33.0089L75.0489 32.4504C74.8628 31.8086 74.6139 31.1902 74.2901 30.6092C73.9452 29.9898 73.519 29.4081 73.0265 28.9093C72.5415 28.4299 71.9785 28.0539 71.3519 27.8134C70.725 27.5663 70.0651 27.5519 69.3704 27.7372C68.5626 27.962 67.7933 28.4417 67.0745 29.1623C66.3258 29.9243 65.6517 30.7676 65.0568 31.659C64.444 32.5778 63.9038 33.5386 63.41 34.5296C63.0906 35.1744 62.8004 35.7647 62.5459 36.3002C62.4414 36.5106 62.1314 36.4561 62.1131 36.2198C62.1091 36.141 62.1047 36.0555 62.0937 35.9639L61.9716 34.3099C61.93 33.7388 61.9158 33.2057 61.8912 32.7193C61.8832 32.5616 61.8903 32.4491 61.8914 32.3436C61.8897 32.3107 61.9008 32.2771 61.9119 32.2435C62.304 31.3902 62.6634 30.5257 62.9903 29.6498C63.0361 29.5417 63.0502 29.442 63.0577 29.3361C63.1663 29.0793 63.2557 28.8236 63.3573 28.554C63.8702 27.1796 64.331 25.7884 64.7334 24.3808C65.1806 22.8453 65.5689 21.287 65.9059 19.725C66.2537 18.1228 66.5333 16.5641 66.7181 15.0307C66.91 13.5101 67.0303 12.0925 67.0323 10.7411C67.0407 9.38929 66.906 8.24356 66.6721 7.28816C66.5779 6.94426 66.4387 6.59639 66.282 6.28249C66.1253 5.96858 65.9192 5.69051 65.6886 5.43362C65.4463 5.1972 65.169 5.02872 64.857 4.93476C64.7207 4.89653 64.579 4.87839 64.4382 4.87996C64.3294 4.87968 64.2418 4.79248 64.2234 4.68149C64.0928 3.8717 63.9209 3.13022 63.7026 2.48371C63.5685 2.10918 63.4038 1.76279 63.195 1.43213C62.9994 1.1073 62.754 0.811727 62.4667 0.571323C62.186 0.337121 61.8711 0.184009 61.5215 0.105415C61.1726 0.0399649 60.7585 0.0771731 60.3063 0.24842C59.6963 0.461785 59.205 0.997846 58.8251 1.83726C58.4579 2.67592 58.1591 3.72815 57.9664 4.97857C57.9677 5.00486 57.9694 5.03772 57.9697 5.04429C57.8394 4.99912 57.6974 4.9744 57.5556 4.95625C57.2151 4.92987 56.8611 5.01632 56.4677 5.21053C55.9373 5.4786 55.5424 6.02226 55.3018 6.8338C55.0613 7.64535 54.9123 8.62297 54.8623 9.786C54.819 11.0805 54.859 12.3767 54.9819 13.6682C55.1179 15.0907 55.2995 16.5303 55.5358 18.0393C55.7711 19.5285 56.0377 21.0028 56.3365 22.4817C56.6343 23.941 56.9275 25.3082 57.216 26.5835C57.4485 27.6378 57.6999 28.6845 57.9579 29.7374C58.0812 30.2773 58.2969 30.8713 58.3775 31.4532C58.4535 31.9432 58.6832 32.5627 58.772 33.0519C58.8779 33.5006 59.0039 33.9679 59.1333 34.5009C59.149 34.5593 59.1396 34.6258 59.1104 34.6802C58.8697 35.1094 58.6162 35.5394 58.3557 35.9566C58.2613 36.1137 58.0366 36.1004 57.9577 35.9336L57.9286 35.8628C57.6699 35.3043 57.3088 34.7452 56.8514 34.1784C56.414 33.6303 55.8836 33.1404 55.3129 32.7384C54.7556 32.3489 54.1401 32.0748 53.4746 31.9486C52.8217 31.8217 52.1668 31.9058 51.5043 32.2211C50.7481 32.5814 50.0741 33.1742 49.4833 34.0192C48.8796 34.865 48.3636 35.798 47.9161 36.8193C47.4682 37.8341 47.0982 38.8707 46.7934 39.9298C46.5862 40.6406 46.4072 41.2772 46.2379 41.8539C46.1727 42.0818 45.8526 42.0806 45.8023 41.8462C45.7853 41.7615 45.7618 41.6771 45.7377 41.5797C45.6157 41.066 45.4796 40.5268 45.3432 39.981C45.2209 39.4608 45.0932 38.9606 44.99 38.4393C44.8955 37.9636 44.8672 37.6554 44.9193 37.5469C45.2093 36.5743 45.4705 35.4122 45.7352 34.0653C46.0012 32.6195 46.2226 31.1762 46.3792 29.717C46.5486 28.1317 46.6727 26.536 46.7515 24.9296C46.8098 23.2981 46.825 21.702 46.7539 20.1703C46.6892 18.6382 46.5533 17.2157 46.3263 15.8907C46.0993 14.5658 45.7811 13.4637 45.3712 12.5712C45.2202 12.2438 45.0256 11.9387 44.8124 11.6478C44.6188 11.3624 44.357 11.1205 44.078 10.9192C43.8121 10.7237 43.4931 10.617 43.165 10.5833C42.8238 10.5437 42.4688 10.6105 42.0693 10.8116C41.5255 11.0673 41.1171 11.5985 40.8437 12.3922C40.5702 13.1859 40.3961 14.1716 40.3075 15.3303C40.2182 16.4758 40.2196 17.7677 40.3051 19.2063C40.3837 20.6321 40.5344 22.0933 40.7062 23.5929C40.8841 25.0854 41.1127 26.5685 41.3541 28.0508C41.6079 29.5258 41.8568 30.9022 42.1009 32.1866C42.3253 33.4589 42.5611 34.579 42.7826 35.5417C42.9009 36.1084 43.3051 37.0143 43.0184 37.5451C42.9189 37.7289 42.8197 37.9192 42.7202 38.1029C42.6445 38.2523 42.5629 38.4087 42.552 38.5741C42.5435 38.7855 42.6559 38.9834 42.7737 39.1611C42.8976 39.3319 43.2544 39.6803 43.4339 39.4326C43.4628 39.3716 43.5058 39.3362 43.5347 39.2751C43.6168 39.6329 43.6861 39.9914 43.7705 40.3952C43.9096 40.9936 44.0554 41.5982 44.2072 42.1958C44.5166 43.3775 44.9271 44.5336 45.1545 45.7399C45.3819 46.9462 45.1163 48.1481 44.8957 49.354C44.7307 50.2666 44.3908 52.7846 43.1542 52.8827C40.5929 53.1104 39.3674 46.5964 39.0428 43.5962C39.0415 43.5699 39.0402 43.5436 39.0516 43.5166C39.0681 43.4629 39.088 43.3497 39.0743 43.2055C39.0281 42.7995 38.8514 42.3417 38.1894 42.4131C37.4004 42.505 37.1926 43.0773 37.242 43.5491C37.3647 44.0759 37.4405 44.8163 37.6026 45.743C37.6036 45.7627 37.6046 45.7824 37.6056 45.8021C37.376 48.7289 36.647 55.6991 34.0826 55.9929C31.3849 56.3076 30.4509 51.886 30.2621 50.0513C30.0505 48.0202 30.2256 44.0155 31.4563 40.5098C32.5359 37.4348 34.177 34.7029 36.1495 34.4764C38.5228 34.2003 39.138 36.8738 39.3365 38.7738C39.3759 39.1736 39.3583 39.5834 39.3977 39.9832C39.3983 39.9963 39.3987 40.0029 39.3993 40.016C39.4241 40.1266 39.5991 40.802 40.1398 40.7377C40.7316 40.6704 40.8192 40.2501 40.6802 38.8936C40.5047 37.1966 39.845 32.8843 36.0974 33.3193C33.266 33.6483 31.2975 36.4849 30.1039 39.7116C28.8598 43.0796 28.4776 47.037 28.7884 50.0182C29.1189 53.1366 30.7952 57.6799 34.2818 57.2733C35.7643 57.1016 37.9213 55.5856 38.3846 49.9426C38.4039 49.691 38.7405 49.6385 38.823 49.8776C39.5768 52.0026 40.847 54.5919 43.233 54.3151C44.1684 54.2081 44.8083 53.4459 45.2215 52.6309C45.7385 51.5924 46.0199 50.4489 46.1924 49.3051C46.6002 46.6118 47.1205 43.8659 47.8893 41.2241C48.1228 40.3998 48.3761 39.5875 48.6738 38.7661C48.959 37.9519 49.2852 37.1882 49.6587 36.4744C50.0322 35.7606 50.417 35.145 50.8687 34.5849C51.315 34.0448 51.7867 33.6285 52.3309 33.3794C52.7871 33.1618 53.2268 33.1231 53.6489 33.2437C54.0646 33.3646 54.4604 33.5987 54.8025 33.9084C55.1509 34.2178 55.4705 34.5881 55.7406 34.9943C56.0239 35.4064 56.2423 35.8024 56.4077 36.1619C56.6794 36.7262 56.8756 37.3147 57.0351 37.9382C57.0512 38.0032 57.0421 38.0762 57.0001 38.1314C56.6549 38.6458 56.2382 39.2632 55.7632 39.9961C55.2648 40.7699 54.7552 41.5773 54.211 42.4592C53.6671 43.3476 53.1689 44.2532 52.6979 45.1902C52.238 46.0936 51.8369 47.0199 51.5073 47.9685C51.1891 48.89 51.0026 49.7577 50.9292 50.5859C50.8754 51.4196 50.964 52.1593 51.2854 52.8196C51.4441 53.1729 51.6777 53.489 51.9768 53.7089C52.2639 53.9428 52.5862 54.1152 52.9569 54.2321C53.6846 54.447 54.4681 54.3752 55.1682 54.0445C55.8871 53.7062 56.4872 53.1704 57.0065 52.4284C57.5258 51.6864 57.9245 50.8393 58.2276 49.8725C58.5415 48.8655 58.7647 47.8375 58.9103 46.7941C59.0664 45.704 59.1398 44.6253 59.1555 43.5434C59.1715 42.468 59.1273 41.4686 59.0472 40.5175C58.9825 39.6182 58.8412 38.8486 58.6813 38.2184C58.6652 38.1535 58.6747 38.087 58.7103 38.0322C58.9298 37.6899 59.1429 37.3479 59.3557 36.9994C59.4558 36.8288 59.707 36.8604 59.7677 37.048C59.8978 37.4689 60.0272 37.8767 60.1627 38.2775C60.4122 39.0343 61.3435 41.6301 62.4878 40.2124C63.2947 39.2098 63.6968 37.1628 64.2764 35.9691C64.6529 35.1892 65.0436 34.4349 65.4665 33.6852C65.8715 32.963 66.3283 32.251 66.82 31.5963C67.27 31.0033 67.7727 30.4402 68.3171 29.9406C68.8446 29.4881 69.3919 29.1729 69.9656 29.0012C70.4516 28.8676 70.8882 28.895 71.2888 29.0958C71.6893 29.2967 72.024 29.5871 72.3241 29.952C72.6181 30.3239 72.8499 30.7323 73.0717 31.194C73.2679 31.6572 73.4235 32.0767 73.513 32.4538C73.6779 33.0572 73.7797 33.6776 73.8311 34.314C73.8348 34.3863 73.8126 34.4535 73.7639 34.5024C73.2467 35.0334 72.7366 35.5771 72.2457 36.1198C71.5833 36.8174 70.9412 37.5336 70.3195 38.2749C69.6423 39.0591 68.9793 39.8688 68.3689 40.7084C67.7633 41.5147 67.2114 42.3707 66.7246 43.2493C66.2624 44.1066 65.9255 44.9106 65.7108 45.7272C65.5021 46.5369 65.4947 47.2756 65.6717 47.9905C65.7749 48.3866 65.9514 48.7125 66.1964 49.0015C66.4347 49.2843 66.7211 49.505 67.0632 49.6895C67.0632 49.6895 67.0763 49.6953 67.083 49.7015C67.4305 49.8659 67.769 49.9781 68.1478 50.0023C68.5334 50.0326 68.9092 49.9977 69.2884 49.9031C70.0586 49.6937 70.7406 49.2586 71.368 48.629C72.0185 47.9518 72.5805 47.1678 72.9984 46.3196C73.4882 45.3749 73.887 44.4026 74.2009 43.3956C74.5259 42.3551 74.7931 41.3113 75.0012 40.2379C75.1945 39.2511 75.3293 38.248 75.4121 37.228C75.4878 36.3206 75.4936 35.549 75.4479 34.8991C75.4446 34.8334 75.4671 34.7728 75.5095 34.7242C75.5458 34.6825 75.5884 34.6405 75.6244 34.5922C76.204 34.0313 76.7962 33.2125 77.2786 32.3738C77.3902 32.1761 77.6817 32.2449 77.6997 32.4746C77.7327 32.8747 77.7671 33.3012 77.8166 33.7729C78.2919 38.7419 80.6193 44.012 83.5108 43.7322C83.5235 43.7315 83.5427 43.7303 83.5554 43.7296C86.4626 43.0007 87.0497 33.8569 87.2834 30.6332C87.3516 29.9569 87.3936 29.2689 87.4222 28.5685C87.4341 28.2976 87.8096 28.256 87.8743 28.5225C90.385 39.6948 90.9058 41.7673 91.3787 43.7767C91.4112 43.9133 91.3218 44.0437 91.1884 44.0646C86.3035 44.7896 78.9583 46.3495 79.257 49.4698C79.6218 53.2653 85.9075 55.1813 88.9313 54.8609C91.0449 54.6394 93.881 53.6443 93.386 48.4129C93.3061 47.5935 93.1609 46.6198 92.9321 45.3872C92.906 45.2503 93.0018 45.1195 93.1291 45.1056C93.8868 45.0286 94.7335 44.94 95.6272 44.8947C95.6911 44.891 95.7498 44.914 95.7904 44.9578C95.8978 45.057 96.1369 45.2277 96.4869 45.1876C96.6081 45.1806 98.1706 44.9449 98.206 44.0002C98.207 43.3872 95.2813 43.6228 92.7794 43.8866C92.6646 43.8933 92.5585 43.8203 92.5333 43.7031L92.525 43.6641ZM44.159 34.7895L44.1281 34.8111C43.9468 34.0109 43.77 33.0455 43.5449 31.8853C43.3326 30.7243 43.1105 29.4979 42.8959 28.1657C42.674 26.8141 42.4832 25.4475 42.3184 24.086C42.1545 22.7442 42.0229 21.4071 41.9349 20.0478C41.8378 18.7614 41.8079 17.5371 41.8538 16.4205L41.8847 16.3989C41.9172 15.2698 42.0242 14.3474 42.1979 13.6056C42.212 13.5059 42.2494 13.3587 42.2988 13.1977C42.3543 13.0297 42.3967 12.8558 42.4778 12.6863C42.5514 12.4975 42.6392 12.3342 42.7212 12.1844C42.7911 12.0485 42.901 11.9433 43.032 11.8764C43.1445 11.8237 43.2661 11.8232 43.3836 11.8691C43.5079 11.9213 43.5955 12.0085 43.6841 12.1154C43.7599 12.223 43.8227 12.3249 43.8982 12.4259C43.8985 12.4325 43.912 12.4449 43.9187 12.4511C43.9683 12.5471 44.0106 12.6238 44.0455 12.6811C44.0526 12.6938 44.0593 12.7 44.0663 12.7128C44.4484 13.5608 44.7549 14.5581 44.9672 15.7191C45.1805 16.8998 45.3337 18.1565 45.3958 19.5108C45.4653 20.8844 45.478 22.2745 45.4326 23.6548C45.3818 25.0552 45.2982 26.4377 45.1829 27.8287C45.0472 29.1944 44.9132 30.4678 44.7369 31.6645C44.5916 32.7144 44.401 33.7538 44.1785 34.795L44.159 34.7895ZM57.7023 42.7774L57.7037 42.8037C57.7277 43.7844 57.6748 44.7631 57.5641 45.7384C57.4461 46.6945 57.2383 47.6492 56.9782 48.5805C56.7047 49.4994 56.3399 50.3841 55.8498 51.1969C55.6635 51.5637 55.3933 51.9155 55.1043 52.2751C54.8083 52.6218 54.4514 52.9062 54.0517 53.1008C53.6956 53.273 53.3708 53.3051 53.1025 53.1888C52.8279 53.0729 52.611 52.835 52.447 52.5017C52.238 52.0393 52.1771 51.4693 52.2571 50.7726C52.3565 50.0813 52.543 49.3388 52.8164 48.5451C53.0902 47.758 53.4396 46.9467 53.8703 46.0978C54.2965 45.2886 54.7292 44.4791 55.1692 43.689C55.623 42.9178 56.0415 42.208 56.4506 41.5646C56.7057 41.1675 56.9306 40.8051 57.1322 40.4902C57.2509 40.3053 57.5229 40.3686 57.5466 40.5848C57.6332 41.2851 57.6765 42.0142 57.7023 42.7774ZM57.6179 9.22405C57.5704 10.8154 57.581 12.4166 57.6232 14.0093C57.6801 15.6407 57.7565 17.2776 57.89 18.9046C58.0107 20.5323 58.1446 22.0407 58.2802 23.4566C58.3226 24.0408 58.4016 24.5899 58.4627 25.1664C58.2848 24.3067 58.113 23.4399 57.9184 22.502L57.8992 22.5031C57.653 21.1793 57.4123 19.8354 57.1954 18.4571C56.9871 17.1245 56.8102 15.7769 56.6789 14.4464C56.5435 13.1623 56.4884 11.946 56.4698 10.8199C56.4513 9.69382 56.5384 8.75934 56.7047 7.99824C56.7189 7.89854 56.7435 7.7521 56.7993 7.59066C56.842 7.42339 56.8844 7.24955 56.9645 7.06034C57.026 6.88538 57.1071 6.71589 57.1945 6.54603C57.2583 6.41708 57.3612 6.29905 57.4979 6.21861C57.6538 6.13706 57.8341 6.2848 57.8111 6.46411C57.7042 7.38656 57.6419 8.30641 57.6119 9.23099L57.6179 9.22405ZM63.9367 16.0951C64.1673 14.3284 64.3295 12.5985 64.4123 10.9458C64.4947 9.28651 64.4794 7.71858 64.3683 6.28145L64.3663 6.24201C64.3663 6.24201 64.4597 6.19045 64.5098 6.16778L64.5353 6.16629C64.6549 6.1264 64.7778 6.15223 64.8775 6.22554C64.9836 6.29849 65.0722 6.40541 65.1222 6.50797C65.1923 6.62915 65.243 6.74486 65.2809 6.86131C65.3184 6.97119 65.3486 7.06172 65.3707 7.11976C65.3711 7.12633 65.3714 7.13291 65.3717 7.13948C65.5963 8.0361 65.7321 9.0763 65.7416 10.2754C65.7547 11.5469 65.6653 12.8177 65.5179 14.0786C65.3634 15.4521 65.138 16.8164 64.8485 18.1779C64.572 19.5453 64.2439 20.9024 63.8771 22.2552C63.5369 23.501 63.1702 24.7285 62.7847 25.9638C62.5744 26.6154 62.3447 27.2615 62.1083 27.9014C62.0178 28.1374 61.6756 28.0781 61.6694 27.828C61.6537 27.5191 61.6499 27.1897 61.6323 26.8414L61.6521 26.8534C61.7456 26.5514 61.8445 26.2293 61.9421 25.8808C62.3701 24.3465 62.7591 22.8013 63.077 21.2404C63.4261 19.5392 63.7168 17.8217 63.937 16.1017L63.9367 16.0951ZM61.7185 20.4491C61.7495 19.6695 61.7492 18.9048 61.7856 18.1051C61.8555 16.7036 61.9663 15.3525 62.0987 14.0463C62.238 12.7528 62.4019 11.5634 62.6271 10.4495C62.7605 9.7958 62.8971 9.20781 63.0757 8.68989C63.0782 9.11821 63.0743 9.54689 63.0579 9.98289C63.0061 11.4888 62.8834 12.9856 62.6902 14.48C62.5104 15.9867 62.2793 17.4898 62.0027 18.9824C61.9128 19.482 61.8085 19.9495 61.7185 20.4491ZM60.2217 17.6817L60.2224 17.6949C60.1495 19.0372 60.1146 20.3707 60.1246 21.7083C60.1309 21.8331 60.1191 21.9788 60.1123 22.0979C60.0693 22.7661 60.032 23.4209 59.9803 24.0435C59.9533 23.7616 59.9387 23.4724 59.9052 23.1909C59.7722 21.8276 59.6715 20.469 59.596 19.1023C59.497 17.6512 59.4209 16.1462 59.3827 14.6323C59.3371 13.0991 59.3339 11.6425 59.3642 10.217C59.3707 9.9661 59.3903 9.72107 59.3971 9.47678C59.4511 9.65821 59.4984 9.83345 59.5523 10.0149L59.5268 10.0164L59.508 10.024C59.7589 11.1894 59.938 12.4512 60.0629 13.7821C60.1603 15.075 60.2197 16.3767 60.2278 17.6748L60.2217 17.6817ZM59.829 7.00621C59.779 6.90365 59.6971 6.80293 59.6212 6.69527C59.5937 6.65732 59.5783 6.60548 59.5823 6.5591C59.5911 6.4795 59.6059 6.39294 59.6087 6.32028C59.7524 5.11226 59.9638 4.10465 60.2372 3.31097L60.2359 3.28468L60.2104 3.28616C60.2373 3.18572 60.2871 3.03122 60.3617 2.8621C60.4166 2.68094 60.5104 2.51071 60.6032 2.32076C60.6032 2.32076 60.6028 2.31419 60.6089 2.30725C60.7084 2.1235 60.8146 1.94595 60.9352 1.80053C61.0425 1.6427 61.1654 1.54328 61.3038 1.4957C61.4234 1.45581 61.5645 1.46081 61.683 1.52644C61.8082 1.59827 61.8962 1.69205 61.9797 1.82562C62.0562 1.94643 62.126 2.06103 62.1975 2.20849C62.2549 2.33041 62.2857 2.43408 62.3146 2.49833C62.3146 2.49833 62.3149 2.5049 62.3152 2.51147C62.607 3.34487 62.8039 4.32879 62.9367 5.43508C62.9404 5.50737 62.9185 5.58115 62.8701 5.63669C62.6571 5.85339 62.4719 6.11462 62.3028 6.44083C61.8987 7.18276 61.5687 8.12474 61.2867 9.25509C61.176 9.72294 61.0733 10.2233 60.9719 10.7499C60.9518 10.606 60.918 10.4432 60.9046 10.3056L60.8848 10.2935C60.6259 8.97044 60.2638 7.88405 59.829 7.00621ZM73.6892 39.2264L73.6899 39.2395C73.5409 40.2172 73.3399 41.178 73.0486 42.1244C72.7693 43.0568 72.4055 43.9612 71.9698 44.8368C71.5404 45.712 71.0302 46.5063 70.4132 47.2144C70.1363 47.5601 69.8258 47.8747 69.4942 48.151C69.1259 48.4624 68.7332 48.6698 68.31 48.78C67.9257 48.9012 67.603 48.8474 67.3579 48.6836C67.1061 48.5137 66.9323 48.2403 66.8378 47.8898C66.704 47.3966 66.7577 46.8135 66.9485 46.1564C67.1581 45.4917 67.462 44.7951 67.8792 44.059C68.3139 43.2889 68.7948 42.5491 69.3352 41.8454C69.881 41.1216 70.4396 40.3971 71.0378 39.6966C71.5624 39.0598 72.1131 38.4346 72.6515 37.8167C72.9727 37.4618 73.2577 37.1487 73.5121 36.8637C73.6576 36.7036 73.9195 36.8203 73.9049 37.0386C73.8649 37.766 73.787 38.5022 73.6832 39.2333L73.6892 39.2264ZM88.7351 53.6396C86.195 53.9056 80.7212 52.2259 80.4483 49.3612C80.3531 48.3648 82.0435 47.4955 83.8101 46.8657C86.3956 45.9774 88.9704 45.5116 91.4464 45.2427C91.5613 45.2361 91.6674 45.309 91.6928 45.4328C91.9179 46.593 92.1363 47.7471 92.2315 48.7435C92.479 51.3592 91.148 53.3876 88.7288 53.64L88.7351 53.6396Z" fill="#1E265E"/>
<path d="M90.0602 20.5381C90.3729 20.6322 90.561 20.6741 90.7462 20.6568C91.0462 20.6262 91.1483 20.3628 91.1899 20.1689C92.8536 15.1399 94.3636 12.3979 94.3127 11.899C94.2889 11.6824 94.198 11.5358 94.0449 11.4259C93.566 11.0905 92.9063 11.3664 92.7296 11.9313C92.5857 12.3821 92.5231 12.9206 92.4233 13.2301C91.5354 16.0945 90.0444 19.7202 89.9517 20.0425C89.8974 20.1117 89.9132 20.2957 89.9229 20.3612C89.9259 20.4204 90.0602 20.5381 90.0602 20.5381Z" fill="#1E265E"/>
<path d="M99.7803 29.8541C98.5583 27.9105 97.6297 26.5642 96.9502 25.1902C96.9495 25.177 96.9428 25.1708 96.9357 25.158C96.853 24.9184 96.7672 24.6196 96.7421 24.3766C96.6338 23.2535 96.8895 22.7235 96.8067 21.2159C96.7145 20.2834 96.4143 19.6799 95.6195 19.7062C94.6487 19.8087 94.4983 20.7684 94.5556 21.3926C94.7349 23.2843 95.248 24.5425 95.3567 24.7871C95.3712 24.8193 95.3793 24.8519 95.3745 24.8852C95.3187 29.8683 94.8117 34.3095 94.5483 36.2071C94.5344 36.3136 94.4548 36.3909 94.3531 36.41C94.2446 36.4229 94.188 36.446 94.1071 36.4969C94.1071 36.4969 93.6983 36.6659 93.7398 37.106C93.7462 37.2311 93.7653 37.3555 93.8357 37.4769C93.8357 37.4769 95.798 41.359 100.192 41.2761C100.198 41.2757 100.211 41.275 100.217 41.2746C102.267 41.0502 103.367 39.8108 103.282 37.6296C103.281 37.6165 103.28 37.6033 103.28 37.5901C102.809 34.6255 101.439 32.4395 99.78 29.8476L99.7803 29.8541ZM100.029 40.2222C99.8437 40.2329 97.1152 40.3646 95.5351 37.5633C95.5068 37.5121 95.4974 37.4532 95.5076 37.3998C96.259 33.3473 96.4668 29.5904 96.5291 27.6517C96.5366 27.4201 96.8342 27.3368 96.9534 27.5346C98.8567 30.7597 101.481 34.7751 101.729 37.3894C101.853 38.6965 101.312 40.0752 100.048 40.2145C100.042 40.2148 100.035 40.2152 100.029 40.2156L100.029 40.2222Z" fill="#1E265E"/>
<path d="M56.8489 60.39V61.82C56.202 61.2367 55.5346 60.9438 54.8445 60.9438C54.0837 60.9438 53.4437 61.2391 52.922 61.8298C52.3982 62.4181 52.1362 63.1368 52.1362 63.9859C52.1362 64.8351 52.3982 65.5341 52.922 66.11C53.4459 66.686 54.0883 66.9764 54.849 66.9764C55.2431 66.9764 55.5756 66.9075 55.8512 66.7697C56.0038 66.7007 56.1633 66.6072 56.3273 66.4891C56.4913 66.3709 56.6644 66.2306 56.8466 66.0633V67.5204C56.2066 67.9117 55.5369 68.1061 54.8331 68.1061C53.7739 68.1061 52.8719 67.7074 52.1248 66.9099C51.38 66.1051 51.0065 65.1354 51.0065 63.9982C51.0065 62.9793 51.3185 62.071 51.9426 61.2736C52.7102 60.2964 53.7033 59.8066 54.9196 59.8066C55.5847 59.8066 56.2271 60.0011 56.8466 60.3924L56.8489 60.39Z" fill="#1E265E"/>
<path d="M59.7127 63.9294C59.7127 62.8201 60.1057 61.8683 60.8895 61.0739C61.671 60.2795 62.6092 59.8799 63.7065 59.8799C64.8038 59.8799 65.7186 60.2819 66.4954 61.0836C67.2745 61.8853 67.6629 62.8492 67.6629 63.9754C67.6629 65.1016 67.2722 66.068 66.4907 66.8551C65.7069 67.6471 64.7594 68.0443 63.648 68.0443C62.6653 68.0443 61.7833 67.6931 61.0018 66.9883C60.1408 66.2109 59.7103 65.1912 59.7103 63.9294H59.7127ZM60.8708 63.9463C60.8708 64.8158 61.1539 65.5327 61.7178 66.0922C62.2793 66.6541 62.9274 66.9326 63.6644 66.9326C64.4622 66.9326 65.136 66.6468 65.6835 66.0752C66.231 65.4964 66.5071 64.794 66.5071 63.9633C66.5071 63.1326 66.2357 62.4205 65.6952 61.8513C65.1571 61.2798 64.4903 60.994 63.6948 60.994C62.8993 60.994 62.2348 61.2798 61.6897 61.8513C61.1446 62.4157 60.8731 63.1132 60.8731 63.9415L60.8708 63.9463Z" fill="#1E265E"/>
<path d="M70.6694 63.9294C70.6694 62.8201 71.0625 61.8683 71.8462 61.0739C72.6277 60.2795 73.5659 59.8799 74.6632 59.8799C75.7605 59.8799 76.6753 60.2819 77.4521 61.0836C78.2312 61.8853 78.6196 62.8492 78.6196 63.9754C78.6196 65.1016 78.2289 66.068 77.4474 66.8551C76.6636 67.6471 75.7161 68.0443 74.6047 68.0443C73.6221 68.0443 72.74 67.6931 71.9586 66.9883C71.0976 66.2109 70.6671 65.1912 70.6671 63.9294H70.6694ZM71.8275 63.9463C71.8275 64.8158 72.1106 65.5327 72.6745 66.0922C73.236 66.6541 73.8841 66.9326 74.6211 66.9326C75.4189 66.9326 76.0928 66.6468 76.6403 66.0752C77.1877 65.4964 77.4638 64.794 77.4638 63.9633C77.4638 63.1326 77.1924 62.4205 76.652 61.8513C76.1138 61.2798 75.447 60.994 74.6515 60.994C73.856 60.994 73.1916 61.2798 72.6464 61.8513C72.1013 62.4157 71.8299 63.1132 71.8299 63.9415L71.8275 63.9463Z" fill="#1E265E"/>
<path d="M83.1562 63.1715L86.1159 60.0303H87.6484L84.2114 63.5954L87.6695 67.904H86.1323L83.3925 64.4019L83.1562 64.6465V67.904H82.0074V60.0303H83.1562V63.1715Z" fill="#1E265E"/>
<path d="M90.6572 67.9016V60.0278H91.799C92.309 60.0278 92.7138 60.069 93.0156 60.1514C93.3221 60.2337 93.5795 60.3717 93.7901 60.5655C94.003 60.7665 94.1714 61.016 94.2978 61.3163C94.4265 61.6191 94.4896 61.9242 94.4896 62.2342C94.4896 62.7985 94.2814 63.2757 93.8649 63.668C94.2697 63.8109 94.5879 64.0604 94.8195 64.4188C95.0558 64.7724 95.1751 65.1842 95.1751 65.6516C95.1751 66.2668 94.9646 66.7875 94.5458 67.2113C94.2931 67.4729 94.01 67.6545 93.6941 67.7563C93.3502 67.8556 92.9174 67.904 92.3979 67.904H90.6596L90.6572 67.9016ZM91.8037 63.4113H92.164C92.5898 63.4113 92.9033 63.3144 93.1022 63.1182C93.3011 62.9221 93.3993 62.6338 93.3993 62.2536C93.3993 61.8734 93.2964 61.6021 93.0928 61.4108C92.8893 61.2194 92.5945 61.1226 92.2061 61.1226H91.8013V63.4113H91.8037ZM91.8037 66.7851H92.5126C93.032 66.7851 93.4134 66.6809 93.6544 66.4678C93.9094 66.2401 94.0381 65.9519 94.0381 65.6007C94.0381 65.2495 93.9141 64.9759 93.6684 64.7434C93.4297 64.5157 92.9992 64.4019 92.3839 64.4019H91.8037V66.7826V66.7851Z" fill="#1E265E"/>
<path d="M98.1045 63.9294C98.1045 62.8201 98.4975 61.8683 99.2813 61.0739C100.063 60.2795 101.001 59.8799 102.098 59.8799C103.196 59.8799 104.11 60.2819 104.887 61.0836C105.666 61.8853 106.055 62.8492 106.055 63.9754C106.055 65.1016 105.664 66.068 104.883 66.8551C104.099 67.6471 103.151 68.0443 102.04 68.0443C101.057 68.0443 100.175 67.6931 99.3936 66.9883C98.5326 66.2109 98.1021 65.1912 98.1021 63.9294H98.1045ZM99.2626 63.9463C99.2626 64.8158 99.5457 65.5327 100.11 66.0922C100.671 66.6541 101.319 66.9326 102.056 66.9326C102.854 66.9326 103.528 66.6468 104.075 66.0752C104.623 65.4964 104.899 64.794 104.899 63.9633C104.899 63.1326 104.627 62.4205 104.087 61.8513C103.549 61.2798 102.882 60.994 102.087 60.994C101.291 60.994 100.627 61.2798 100.081 61.8513C99.5363 62.4157 99.2649 63.1132 99.2649 63.9415L99.2626 63.9463Z" fill="#1E265E"/>
<path d="M109.061 63.9294C109.061 62.8201 109.454 61.8683 110.238 61.0739C111.019 60.2795 111.958 59.8799 113.055 59.8799C114.152 59.8799 115.067 60.2819 115.844 61.0836C116.623 61.8853 117.011 62.8492 117.011 63.9754C117.011 65.1016 116.621 66.068 115.839 66.8551C115.055 67.6471 114.108 68.0443 112.997 68.0443C112.014 68.0443 111.132 67.6931 110.35 66.9883C109.489 66.2109 109.059 65.1912 109.059 63.9294H109.061ZM110.219 63.9463C110.219 64.8158 110.502 65.5327 111.066 66.0922C111.628 66.6541 112.276 66.9326 113.013 66.9326C113.811 66.9326 114.485 66.6468 115.032 66.0752C115.58 65.4964 115.856 64.794 115.856 63.9633C115.856 63.1326 115.584 62.4205 115.044 61.8513C114.506 61.2798 113.839 60.994 113.043 60.994C112.248 60.994 111.583 61.2798 111.038 61.8513C110.493 62.4157 110.219 63.1132 110.219 63.9415V63.9463Z" fill="#1E265E"/>
<path d="M121.548 63.1715L124.508 60.0303H126.04L122.601 63.5954L126.059 67.904H124.522L121.782 64.4019L121.546 64.6465V67.904H120.399V60.0303H121.546V63.1715H121.548Z" fill="#1E265E"/>
</g>
<path d="M143.923 58.9263H149.224V53.6357H152.55V58.9263H157.824V62.2458H152.55V67.5364H149.224V62.2458H143.923V58.9263Z" fill="#1E265E"/>
<defs>
<clipPath id="clip0_214_302">
<rect width="92.6689" height="22.9091" fill="white" transform="translate(168.058 49.0908)"/>
</clipPath>
<clipPath id="clip1_214_302">
<rect width="126.059" height="69.5251" fill="white"/>
</clipPath>
</defs>
</svg>
