<svg width="145" height="29" viewBox="0 0 145 29" fill="none" xmlns="http://www.w3.org/2000/svg">
<g clip-path="url(#clip0_161_147)">
<path d="M38.5686 8.23491C38.5686 7.479 39.1268 6.98989 39.9978 6.98989H44.1514C47.9254 6.98989 50.4712 9.05751 50.4712 12.0811C50.4712 15.1047 47.9477 17.2613 44.1514 17.2613H43.5708C42.1192 17.2613 41.3823 18.0172 41.3823 19.2177V22.5971C41.3823 23.5531 40.824 24.1533 39.9754 24.1533C39.1268 24.1533 38.5686 23.5531 38.5686 22.5971V8.23491ZM41.3823 12.5258C41.3823 14.0376 42.1639 14.7712 43.6378 14.7712H43.9951C46.0719 14.7712 47.5904 13.9264 47.5904 12.0811C47.5904 10.2358 46.0719 9.39099 43.9951 9.39099H43.6378C42.1639 9.39099 41.3823 10.1024 41.3823 11.6365V12.548V12.5258ZM50.4712 22.8416C50.4712 23.642 51.0295 24.1533 51.8781 24.1533C52.7267 24.1533 52.95 23.7976 53.2403 23.0417L53.7539 21.6855C54.1559 20.5961 54.8928 20.107 55.6744 20.107H60.2523C61.0563 20.107 61.7709 20.6184 62.1728 21.6855L62.6865 23.0417C62.9768 23.7976 63.4904 24.1533 64.0487 24.1533C64.8973 24.1533 65.4556 23.6198 65.4556 22.8416C65.4556 22.0635 65.4109 22.3525 65.3216 22.0857L59.8504 7.90142C59.5154 7.03436 58.7338 6.61194 57.9969 6.61194C57.2599 6.61194 56.4783 7.03436 56.1434 7.90142L50.6722 22.0857C50.5828 22.3525 50.5382 22.6193 50.5382 22.8416H50.4712ZM55.8084 16.3942C55.8084 16.1274 55.8754 15.8829 56.0094 15.5271L57.0366 12.6592C57.2376 12.1034 57.5726 11.8366 57.9522 11.8366C58.3318 11.8366 58.6668 12.1034 58.8678 12.6592L59.895 15.5271C60.0067 15.8829 60.096 16.1274 60.096 16.3942C60.096 17.1057 59.6941 17.617 58.5998 17.617H57.3046C56.2104 17.617 55.8084 17.1057 55.8084 16.3942ZM64.5176 8.27937C64.5176 7.50124 65.0759 6.98989 65.9692 6.98989H77.0679C77.9611 6.98989 78.5194 7.52347 78.5194 8.27937C78.5194 9.03528 77.9611 9.56885 77.0679 9.56885H75.2144C73.7405 9.56885 72.9366 10.3248 72.9366 12.0144V22.5526C72.9366 23.5308 72.3783 24.1311 71.5074 24.1311C70.6364 24.1311 70.0782 23.5308 70.0782 22.5526V12.0144C70.0782 10.3025 69.2742 9.56885 67.8004 9.56885H65.9468C65.0536 9.56885 64.4953 9.03528 64.4953 8.27937H64.5176ZM81.1322 22.5971C81.1322 23.5531 81.6905 24.1533 82.5391 24.1533C83.3877 24.1533 83.946 23.5531 83.946 22.5971V18.7731C83.946 17.6837 84.5712 17.239 85.3528 17.239H85.5538C86.0674 17.239 86.5587 17.5503 86.8714 18.0172L90.5337 23.3752C90.8687 23.8865 91.3153 24.1756 91.8513 24.1756C92.3872 24.1756 93.1465 23.5753 93.1465 22.8639C93.1465 22.1524 93.0572 22.2636 92.8338 21.9523L90.3997 18.5508C90.1094 18.1506 89.9978 17.7949 89.9978 17.5281C89.9978 16.9278 90.5337 16.5054 91.159 16.0385C92.2979 15.1937 93.5261 14.082 93.5261 11.97C93.5261 9.85788 91.2037 7.01212 87.385 7.01212H82.5391C81.6681 7.01212 81.1322 7.52347 81.1322 8.25714V22.6193V22.5971ZM83.9236 12.3034V11.592C83.9236 10.0357 84.7499 9.39099 86.0004 9.39099H87.2063C89.2832 9.39099 90.6007 10.1691 90.6007 11.9477C90.6007 13.7263 89.1938 14.5489 87.117 14.5489H85.9781C84.7276 14.5489 83.9013 13.9042 83.9013 12.3479L83.9236 12.3034ZM97.0768 22.5526V8.23491C97.0768 7.479 97.6128 6.98989 98.4837 6.98989H107.617C108.488 6.98989 109.024 7.50124 109.024 8.23491C109.024 8.96858 108.488 9.47992 107.617 9.47992H101.856C100.717 9.47992 99.8906 10.1469 99.8906 11.4364V11.97C99.8906 13.2372 100.717 13.9264 101.856 13.9264H106.322C107.193 13.9264 107.729 14.4378 107.729 15.1714C107.729 15.9051 107.193 16.4164 106.322 16.4164H102.034C100.895 16.4164 99.9129 17.1057 99.9129 18.5285V19.1955C99.9129 20.6184 100.895 21.3076 102.034 21.3076H107.64C108.51 21.3076 109.046 21.8189 109.046 22.5526C109.046 23.2863 108.51 23.7976 107.64 23.7976H98.506C97.6351 23.7976 97.0991 23.2863 97.0991 22.5526H97.0768ZM110.677 15.3938C110.677 10.2136 114.585 6.63417 119.163 6.63417C123.74 6.63417 127.648 10.2136 127.648 15.3938C127.648 20.5739 123.74 24.1533 119.163 24.1533C114.585 24.1533 110.677 20.5739 110.677 15.3938ZM113.848 15.3938C113.848 19.0399 116.014 21.3743 119.163 21.3743C122.311 21.3743 124.477 19.0399 124.477 15.3938C124.477 11.7476 122.311 9.41323 119.163 9.41323C116.014 9.41323 113.848 11.7254 113.848 15.3938ZM131.021 22.5971C131.021 23.5531 131.579 24.1533 132.427 24.1533C133.276 24.1533 133.834 23.5531 133.834 22.5971V15.2381C133.834 14.3488 134.37 13.9264 134.929 13.9264C135.487 13.9264 135.732 14.171 136 14.5934L140.645 22.308C141.271 23.3752 141.851 24.1533 143.035 24.1533C144.218 24.1533 145 23.3307 145 22.019V8.19044C145 7.23445 144.442 6.63417 143.593 6.63417C142.745 6.63417 142.186 7.23445 142.186 8.19044V15.5494C142.186 16.4387 141.65 16.8611 141.092 16.8611C140.534 16.8611 140.288 16.6165 140.02 16.1941L135.375 8.47946C134.75 7.41231 134.169 6.63417 132.986 6.63417C131.802 6.63417 131.021 7.45677 131.021 8.76849V22.5971Z" fill="#1E265E"/>
<path d="M26.5989 8.70175C26.5989 4.98893 23.6958 1.96532 20.3015 0.875929C16.0808 -0.48025 10.5203 -0.280158 6.47834 1.6096C1.58776 3.89954 0.0692291 8.92407 0.00223491 13.9486C-0.0424279 18.0616 0.359537 28.9333 6.523 29C11.1009 29.0667 11.7709 23.1973 13.8924 20.3738C15.3886 18.3729 17.3314 17.7948 19.7209 17.2168C23.8298 16.2163 26.6213 12.9926 26.5989 8.72398V8.70175Z" fill="#1E265E"/>
</g>
<defs>
<clipPath id="clip0_161_147">
<rect width="145" height="29" fill="white"/>
</clipPath>
</defs>
</svg>
