<svg width="18" height="22" viewBox="0 0 18 22" fill="none" xmlns="http://www.w3.org/2000/svg">
<path fill-rule="evenodd" clip-rule="evenodd" d="M10.9091 3.66666C10.9091 1.64162 12.4964 0 14.4545 0C16.4126 0 18 1.64162 18 3.66666C18 5.69171 16.4126 7.33334 14.4545 7.33334C13.4658 7.33334 12.5723 6.91456 11.9299 6.24082L7.0218 9.71245C7.06712 9.94675 7.09094 10.1888 7.09094 10.4359C7.09094 10.9254 6.99776 11.3934 6.82898 11.821L12.2107 15.4944C12.8215 14.9777 13.603 14.6666 14.4545 14.6666C16.4126 14.6666 18 16.3083 18 18.3334C18 20.3584 16.4126 22 14.4545 22C12.4964 22 10.9091 20.3584 10.9091 18.3334C10.9091 17.8029 11.0183 17.298 11.2147 16.8422L5.87654 13.1986C5.25384 13.7608 4.43817 14.1026 3.54545 14.1026C1.58736 14.1026 0 12.4609 0 10.4359C0 8.41085 1.58736 6.76923 3.54545 6.76923C4.67142 6.76923 5.67374 7.31198 6.32271 8.1567L11.0794 4.79206C10.9688 4.43695 10.9091 4.05856 10.9091 3.66666Z" fill="#1E265E"/>
</svg>
