<svg width="39" height="27" viewBox="0 0 39 27" fill="none" xmlns="http://www.w3.org/2000/svg">
<path d="M25.3496 0.5H13.6504C10.161 0.5 6.8153 1.87098 4.34961 4.30957C1.88411 6.74798 0.5 10.054 0.5 13.5C0.5 16.946 1.88411 20.252 4.34961 22.6904C6.8153 25.129 10.161 26.5 13.6504 26.5H25.3496C28.839 26.5 32.1847 25.129 34.6504 22.6904C37.1159 20.252 38.5 16.946 38.5 13.5C38.5 10.054 37.1159 6.74798 34.6504 4.30957C32.1847 1.87098 28.839 0.5 25.3496 0.5ZM21.5732 6.80078C22.9109 6.25279 24.383 6.10944 25.8027 6.38867C27.2225 6.66798 28.528 7.35767 29.5527 8.37109C30.5776 9.38466 31.2755 10.6775 31.5586 12.085C31.8416 13.4923 31.6967 14.951 31.1416 16.2764C30.5865 17.6017 29.6468 18.7333 28.4424 19.5293C27.2379 20.3252 25.8225 20.75 24.375 20.75C22.4341 20.75 20.5714 19.9878 19.1973 18.6289C17.823 17.2697 17.0498 15.4246 17.0498 13.5C17.0498 12.0648 17.4805 10.6621 18.2861 9.46973C19.0916 8.2776 20.2356 7.34881 21.5732 6.80078Z" fill="#DD78A7" stroke="#1E265E"/>
</svg>
