<svg width="39" height="27" fill="none" xmlns="http://www.w3.org/2000/svg"><path d="M25.35 0h-11.7c-3.62 0-7.092 1.422-9.652 3.954A13.425 13.425 0 0 0 0 13.5c0 3.58 1.438 7.014 3.998 9.546A13.727 13.727 0 0 0 13.65 27h11.7c3.62 0 7.092-1.422 9.652-3.954A13.425 13.425 0 0 0 39 13.5c0-3.58-1.438-7.014-3.998-9.546A13.727 13.727 0 0 0 25.35 0zM14.625 20.25a6.88 6.88 0 0 1-3.792-1.138 6.767 6.767 0 0 1-2.513-3.029 6.681 6.681 0 0 1-.389-3.9A6.728 6.728 0 0 1 9.8 8.727a6.849 6.849 0 0 1 3.495-1.847 6.895 6.895 0 0 1 3.943.384A6.81 6.81 0 0 1 20.3 9.75a6.698 6.698 0 0 1 1.15 3.75c0 1.79-.72 3.507-1.999 4.773a6.864 6.864 0 0 1-4.826 1.977z" fill="#AABFD5"/></svg>