<svg width="28" height="28" viewBox="0 0 28 28" fill="none" xmlns="http://www.w3.org/2000/svg">
<path fill-rule="evenodd" clip-rule="evenodd" d="M12.4584 3.2457C16.1802 -0.475936 22.2336 -1.2516 25.7426 2.25731C29.2517 5.76627 28.4759 11.8196 24.7542 15.5412C22.261 18.0343 18.2304 19.7404 14.7902 19.6176C14.4884 19.6068 14.188 19.5819 13.8913 19.5411L6.55737 26.8749C5.05728 28.375 2.62516 28.375 1.12506 26.8749C-0.37502 25.3749 -0.37502 22.9428 1.12506 21.4428L8.45852 14.1095C8.41786 13.813 8.39276 13.5129 8.38194 13.2112C8.25839 9.77077 9.96484 5.73922 12.4584 3.2457ZM13.8896 4.67686C16.1034 2.46298 19.0793 1.64509 21.5236 2.19349C21.1624 2.3639 20.8019 2.55939 20.4494 2.76869C18.6853 3.81597 16.8539 5.36976 15.6201 6.60342C14.3881 7.83542 12.5741 9.92649 11.264 11.9405C10.9557 12.4145 10.6664 12.8975 10.4167 13.3748C10.4115 13.2969 10.4074 13.2183 10.4045 13.1387C10.3029 10.3087 11.7574 6.80894 13.8896 4.67686ZM23.5205 3.61972C24.0718 3.50671 24.2504 3.6274 24.3115 3.68847C24.3726 3.74956 24.4934 3.92814 24.3803 4.47965C24.2688 5.02387 23.963 5.72292 23.4912 6.51775C22.5553 8.09465 21.1213 9.79403 19.966 10.9491C18.8091 12.1059 16.8262 13.8231 14.956 15.0394C14.014 15.652 13.1596 16.0983 12.4873 16.3035C12.1522 16.4058 11.9169 16.4309 11.768 16.4198C11.6981 16.4147 11.6595 16.4024 11.6421 16.3953C11.6272 16.3891 11.6222 16.3846 11.6186 16.381C11.6149 16.3772 11.6105 16.3723 11.6043 16.3575C11.5971 16.3401 11.5849 16.3015 11.5797 16.2318C11.5687 16.0829 11.5938 15.8476 11.6962 15.5126C11.9014 14.8404 12.3477 13.9861 12.9606 13.0442C14.1769 11.1741 15.8944 9.19145 17.0513 8.03458C18.2066 6.87939 19.9058 5.44509 21.4826 4.50903C22.2773 4.03722 22.9762 3.73125 23.5205 3.61972ZM16.0595 16.7361C15.5856 17.0442 15.1027 17.3333 14.6257 17.5828C14.7037 17.5881 14.7826 17.5922 14.8625 17.5951C17.6923 17.6961 21.1913 16.2417 23.323 14.11C25.5368 11.8962 26.3548 8.92091 25.8066 6.47675C25.6362 6.83791 25.4408 7.19825 25.2317 7.55074C24.1845 9.31505 22.631 11.1466 21.3972 12.3804C20.165 13.6124 18.0736 15.4261 16.0595 16.7361Z" fill="#1E1E1E"/>
</svg>
