<svg width="191" height="27" viewBox="0 0 191 27" fill="none" xmlns="http://www.w3.org/2000/svg">
<path d="M178.926 19L182.958 0.903999H185.526L181.398 19H178.926ZM186.486 19.312C185.99 19.312 185.534 19.16 185.118 18.856C184.702 18.552 184.494 18.08 184.494 17.44C184.494 17.056 184.558 16.632 184.686 16.168C184.83 15.704 184.966 15.248 185.094 14.8C185.222 14.336 185.286 13.92 185.286 13.552C185.286 13.12 185.182 12.824 184.974 12.664C184.542 12.92 184.166 13.096 183.846 13.192C183.542 13.272 183.166 13.312 182.718 13.312C182.638 13.312 182.566 13.312 182.502 13.312C182.454 13.296 182.382 13.28 182.286 13.264L182.454 12.4C182.854 12.32 183.206 12.264 183.51 12.232C183.814 12.184 184.118 12.16 184.422 12.16C184.806 11.792 185.126 11.368 185.382 10.888C185.638 10.408 185.886 9.944 186.126 9.496C186.382 9.032 186.67 8.656 186.99 8.368C187.326 8.064 187.75 7.912 188.262 7.912C188.71 7.912 189.07 8.016 189.342 8.224C189.614 8.432 189.814 8.688 189.942 8.992C190.07 9.28 190.134 9.544 190.134 9.784C190.134 10.152 190.022 10.456 189.798 10.696C189.59 10.92 189.278 11.032 188.862 11.032C188.59 11.032 188.342 10.952 188.118 10.792C187.91 10.632 187.806 10.392 187.806 10.072C187.806 9.784 187.87 9.568 187.998 9.424C188.126 9.28 188.19 9.136 188.19 8.992C188.19 8.88 188.15 8.8 188.07 8.752C187.99 8.704 187.91 8.68 187.83 8.68C187.606 8.68 187.39 8.824 187.182 9.112C186.974 9.384 186.766 9.72 186.558 10.12C186.35 10.52 186.15 10.912 185.958 11.296C185.766 11.68 185.574 11.976 185.382 12.184C185.846 12.424 186.214 12.68 186.486 12.952C186.758 13.224 186.95 13.52 187.062 13.84C187.174 14.144 187.23 14.472 187.23 14.824C187.23 15.208 187.19 15.64 187.11 16.12C187.03 16.584 186.99 16.976 186.99 17.296C186.99 17.552 187.022 17.72 187.086 17.8C187.166 17.88 187.262 17.92 187.374 17.92C187.726 17.92 188.102 17.688 188.502 17.224C188.918 16.744 189.302 16.08 189.654 15.232L190.206 15.496C189.726 16.76 189.174 17.712 188.55 18.352C187.926 18.992 187.238 19.312 186.486 19.312ZM180.702 1.504V0.903999H185.238V1.504H180.702Z" fill="black"/>
<path d="M170.9 19.312C170.02 19.312 169.252 19.112 168.596 18.712C167.94 18.312 167.428 17.776 167.06 17.104C166.692 16.416 166.508 15.656 166.508 14.824C166.508 13.976 166.692 13.144 167.06 12.328C167.444 11.496 167.956 10.752 168.596 10.096C169.236 9.424 169.964 8.896 170.78 8.512C171.596 8.112 172.452 7.912 173.348 7.912C174.228 7.912 174.996 8.104 175.652 8.488C176.308 8.872 176.82 9.392 177.188 10.048C177.556 10.704 177.74 11.448 177.74 12.28C177.74 13.128 177.548 13.968 177.164 14.8C176.796 15.632 176.292 16.392 175.652 17.08C175.012 17.752 174.284 18.296 173.468 18.712C172.652 19.112 171.796 19.312 170.9 19.312ZM170.948 18.712C171.604 18.712 172.18 18.488 172.676 18.04C173.188 17.576 173.612 16.984 173.948 16.264C174.3 15.528 174.564 14.736 174.74 13.888C174.916 13.024 175.004 12.192 175.004 11.392C175.004 10.544 174.876 9.856 174.62 9.328C174.38 8.784 173.916 8.512 173.228 8.512C172.588 8.512 172.02 8.744 171.524 9.208C171.028 9.672 170.604 10.28 170.252 11.032C169.916 11.768 169.66 12.576 169.484 13.456C169.308 14.32 169.22 15.152 169.22 15.952C169.22 16.848 169.348 17.536 169.604 18.016C169.86 18.48 170.308 18.712 170.948 18.712Z" fill="black"/>
<path d="M158.314 19.312C157.434 19.312 156.666 19.112 156.01 18.712C155.354 18.312 154.842 17.776 154.474 17.104C154.106 16.416 153.922 15.656 153.922 14.824C153.922 13.976 154.106 13.144 154.474 12.328C154.858 11.496 155.37 10.752 156.01 10.096C156.65 9.424 157.378 8.896 158.194 8.512C159.01 8.112 159.866 7.912 160.762 7.912C161.642 7.912 162.41 8.104 163.066 8.488C163.722 8.872 164.234 9.392 164.602 10.048C164.97 10.704 165.154 11.448 165.154 12.28C165.154 13.128 164.962 13.968 164.578 14.8C164.21 15.632 163.706 16.392 163.066 17.08C162.426 17.752 161.698 18.296 160.882 18.712C160.066 19.112 159.21 19.312 158.314 19.312ZM158.362 18.712C159.018 18.712 159.594 18.488 160.09 18.04C160.602 17.576 161.026 16.984 161.362 16.264C161.714 15.528 161.978 14.736 162.154 13.888C162.33 13.024 162.418 12.192 162.418 11.392C162.418 10.544 162.29 9.856 162.034 9.328C161.794 8.784 161.33 8.512 160.642 8.512C160.002 8.512 159.434 8.744 158.938 9.208C158.442 9.672 158.018 10.28 157.666 11.032C157.33 11.768 157.074 12.576 156.898 13.456C156.722 14.32 156.634 15.152 156.634 15.952C156.634 16.848 156.762 17.536 157.018 18.016C157.274 18.48 157.722 18.712 158.362 18.712Z" fill="black"/>
<path d="M145.699 19.312C144.515 19.312 143.619 18.984 143.011 18.328C142.419 17.656 142.123 16.832 142.123 15.856C142.123 15.664 142.139 15.448 142.171 15.208C142.219 14.968 142.299 14.6 142.411 14.104L145.531 0.903999H148.099L144.547 15.688C144.515 15.848 144.483 16.024 144.451 16.216C144.419 16.408 144.403 16.616 144.403 16.84C144.403 17.416 144.531 17.856 144.787 18.16C145.043 18.464 145.395 18.616 145.843 18.616C146.387 18.616 146.907 18.4 147.403 17.968C147.899 17.536 148.339 16.96 148.723 16.24C149.123 15.504 149.435 14.68 149.659 13.768C149.883 12.856 149.995 11.92 149.995 10.96C149.995 10.144 149.891 9.56 149.683 9.208C149.491 8.856 149.139 8.68 148.627 8.68C148.067 8.68 147.531 8.88 147.019 9.28C146.507 9.68 146.035 10.296 145.603 11.128L146.107 9.016H146.275C146.579 8.712 146.963 8.456 147.427 8.248C147.907 8.024 148.419 7.912 148.963 7.912C149.603 7.912 150.195 8.08 150.739 8.416C151.283 8.752 151.723 9.24 152.059 9.88C152.395 10.52 152.563 11.288 152.563 12.184C152.563 13.128 152.371 14.032 151.987 14.896C151.619 15.744 151.115 16.504 150.475 17.176C149.835 17.832 149.099 18.352 148.267 18.736C147.451 19.12 146.595 19.312 145.699 19.312ZM143.131 1.504V0.903999H147.811V1.504H143.131Z" fill="black"/>
<path d="M128.816 19L132.848 0.903999H135.417L131.288 19H128.816ZM136.376 19.312C135.88 19.312 135.424 19.16 135.008 18.856C134.592 18.552 134.385 18.08 134.385 17.44C134.385 17.056 134.449 16.632 134.577 16.168C134.721 15.704 134.856 15.248 134.984 14.8C135.112 14.336 135.176 13.92 135.176 13.552C135.176 13.12 135.073 12.824 134.865 12.664C134.433 12.92 134.056 13.096 133.736 13.192C133.432 13.272 133.057 13.312 132.609 13.312C132.529 13.312 132.457 13.312 132.393 13.312C132.345 13.296 132.272 13.28 132.176 13.264L132.344 12.4C132.744 12.32 133.096 12.264 133.4 12.232C133.704 12.184 134.009 12.16 134.312 12.16C134.697 11.792 135.017 11.368 135.273 10.888C135.529 10.408 135.776 9.944 136.016 9.496C136.272 9.032 136.56 8.656 136.88 8.368C137.216 8.064 137.64 7.912 138.152 7.912C138.6 7.912 138.96 8.016 139.232 8.224C139.504 8.432 139.705 8.688 139.833 8.992C139.961 9.28 140.025 9.544 140.025 9.784C140.025 10.152 139.913 10.456 139.689 10.696C139.481 10.92 139.169 11.032 138.753 11.032C138.481 11.032 138.232 10.952 138.008 10.792C137.8 10.632 137.697 10.392 137.697 10.072C137.697 9.784 137.761 9.568 137.889 9.424C138.017 9.28 138.081 9.136 138.081 8.992C138.081 8.88 138.04 8.8 137.96 8.752C137.88 8.704 137.801 8.68 137.721 8.68C137.497 8.68 137.28 8.824 137.072 9.112C136.864 9.384 136.657 9.72 136.449 10.12C136.241 10.52 136.04 10.912 135.848 11.296C135.656 11.68 135.465 11.976 135.273 12.184C135.737 12.424 136.104 12.68 136.376 12.952C136.648 13.224 136.84 13.52 136.952 13.84C137.064 14.144 137.12 14.472 137.12 14.824C137.12 15.208 137.081 15.64 137.001 16.12C136.921 16.584 136.88 16.976 136.88 17.296C136.88 17.552 136.913 17.72 136.977 17.8C137.057 17.88 137.152 17.92 137.264 17.92C137.616 17.92 137.993 17.688 138.393 17.224C138.809 16.744 139.192 16.08 139.544 15.232L140.096 15.496C139.616 16.76 139.065 17.712 138.441 18.352C137.817 18.992 137.128 19.312 136.376 19.312ZM130.592 1.504V0.903999H135.128V1.504H130.592Z" fill="black"/>
<path d="M120.791 19.312C119.911 19.312 119.143 19.112 118.487 18.712C117.831 18.312 117.319 17.776 116.951 17.104C116.583 16.416 116.399 15.656 116.399 14.824C116.399 13.976 116.583 13.144 116.951 12.328C117.335 11.496 117.847 10.752 118.487 10.096C119.127 9.424 119.855 8.896 120.671 8.512C121.487 8.112 122.343 7.912 123.239 7.912C124.119 7.912 124.887 8.104 125.543 8.488C126.199 8.872 126.711 9.392 127.079 10.048C127.447 10.704 127.631 11.448 127.631 12.28C127.631 13.128 127.439 13.968 127.055 14.8C126.687 15.632 126.183 16.392 125.543 17.08C124.903 17.752 124.175 18.296 123.359 18.712C122.543 19.112 121.687 19.312 120.791 19.312ZM120.839 18.712C121.495 18.712 122.071 18.488 122.567 18.04C123.079 17.576 123.503 16.984 123.839 16.264C124.191 15.528 124.455 14.736 124.631 13.888C124.807 13.024 124.895 12.192 124.895 11.392C124.895 10.544 124.767 9.856 124.511 9.328C124.271 8.784 123.807 8.512 123.119 8.512C122.479 8.512 121.911 8.744 121.415 9.208C120.919 9.672 120.495 10.28 120.143 11.032C119.807 11.768 119.551 12.576 119.375 13.456C119.199 14.32 119.111 15.152 119.111 15.952C119.111 16.848 119.239 17.536 119.495 18.016C119.751 18.48 120.199 18.712 120.839 18.712Z" fill="black"/>
<path d="M108.205 19.312C107.325 19.312 106.557 19.112 105.901 18.712C105.245 18.312 104.733 17.776 104.365 17.104C103.997 16.416 103.813 15.656 103.813 14.824C103.813 13.976 103.997 13.144 104.365 12.328C104.749 11.496 105.261 10.752 105.901 10.096C106.541 9.424 107.269 8.896 108.085 8.512C108.901 8.112 109.757 7.912 110.653 7.912C111.533 7.912 112.301 8.104 112.957 8.488C113.613 8.872 114.125 9.392 114.493 10.048C114.861 10.704 115.045 11.448 115.045 12.28C115.045 13.128 114.853 13.968 114.469 14.8C114.101 15.632 113.597 16.392 112.957 17.08C112.317 17.752 111.589 18.296 110.773 18.712C109.957 19.112 109.101 19.312 108.205 19.312ZM108.253 18.712C108.909 18.712 109.485 18.488 109.981 18.04C110.493 17.576 110.917 16.984 111.253 16.264C111.605 15.528 111.869 14.736 112.045 13.888C112.221 13.024 112.309 12.192 112.309 11.392C112.309 10.544 112.181 9.856 111.925 9.328C111.685 8.784 111.221 8.512 110.533 8.512C109.893 8.512 109.325 8.744 108.829 9.208C108.333 9.672 107.909 10.28 107.557 11.032C107.221 11.768 106.965 12.576 106.789 13.456C106.613 14.32 106.525 15.152 106.525 15.952C106.525 16.848 106.653 17.536 106.909 18.016C107.165 18.48 107.613 18.712 108.253 18.712Z" fill="black"/>
<path d="M94.852 19.312C93.492 19.312 92.324 18.984 91.348 18.328C90.388 17.656 89.652 16.768 89.14 15.664C88.644 14.56 88.396 13.368 88.396 12.088C88.396 11 88.572 9.912 88.924 8.824C89.276 7.72 89.764 6.68 90.388 5.704C91.012 4.728 91.74 3.864 92.572 3.112C93.42 2.344 94.34 1.744 95.332 1.312C96.324 0.863999 97.348 0.639999 98.404 0.639999C99.14 0.639999 99.788 0.759999 100.348 0.999999C100.908 1.24 101.46 1.624 102.004 2.152L103.18 0.904H103.78L102.652 6.016H102.052C102.052 5.04 101.884 4.208 101.548 3.52C101.212 2.816 100.756 2.28 100.18 1.912C99.604 1.528 98.956 1.336 98.236 1.336C97.468 1.336 96.772 1.544 96.148 1.96C95.524 2.376 94.972 2.944 94.492 3.664C94.012 4.368 93.596 5.168 93.244 6.064C92.892 6.944 92.604 7.864 92.38 8.824C92.156 9.768 91.988 10.688 91.876 11.584C91.764 12.48 91.708 13.296 91.708 14.032C91.708 15.744 91.988 16.928 92.548 17.584C93.124 18.224 93.948 18.544 95.02 18.544C95.66 18.544 96.332 18.424 97.036 18.184C97.756 17.928 98.484 17.48 99.22 16.84C99.972 16.184 100.708 15.256 101.428 14.056H102.028L100.756 19H100.156L99.436 17.824C98.78 18.272 98.068 18.632 97.3 18.904C96.532 19.176 95.716 19.312 94.852 19.312Z" fill="black"/>
<path d="M75.7947 19.312C74.7227 19.312 73.8987 19.08 73.3227 18.616C72.7467 18.152 72.4587 17.616 72.4587 17.008C72.4587 16.608 72.5627 16.304 72.7707 16.096C72.9947 15.872 73.2827 15.76 73.6347 15.76C73.9227 15.76 74.1387 15.832 74.2827 15.976C74.4427 16.12 74.5227 16.312 74.5227 16.552C74.5227 16.84 74.4507 17.08 74.3067 17.272C74.1627 17.464 74.0907 17.656 74.0907 17.848C74.0907 18.056 74.2267 18.232 74.4987 18.376C74.7867 18.52 75.2347 18.592 75.8427 18.592C76.8187 18.592 77.5387 18.408 78.0027 18.04C78.4827 17.672 78.7227 17.232 78.7227 16.72C78.7227 16.272 78.5707 15.896 78.2667 15.592C77.9627 15.288 77.5867 15.016 77.1387 14.776C76.7067 14.52 76.2667 14.256 75.8187 13.984C75.3707 13.696 74.9947 13.352 74.6907 12.952C74.3867 12.536 74.2347 12.016 74.2347 11.392C74.2347 10.8 74.3867 10.256 74.6907 9.76C75.0107 9.264 75.4667 8.864 76.0587 8.56C76.6507 8.256 77.3627 8.104 78.1947 8.104C78.8027 8.104 79.3147 8.192 79.7307 8.368C80.1467 8.528 80.4587 8.752 80.6667 9.04C80.8907 9.312 81.0027 9.632 81.0027 10C81.0027 10.368 80.8987 10.664 80.6907 10.888C80.4827 11.112 80.2187 11.224 79.8987 11.224C79.6587 11.224 79.4667 11.16 79.3227 11.032C79.1787 10.904 79.1067 10.728 79.1067 10.504C79.1067 10.264 79.1707 10.08 79.2987 9.952C79.4267 9.808 79.4907 9.64 79.4907 9.448C79.4907 9.224 79.3627 9.056 79.1067 8.944C78.8507 8.816 78.5067 8.752 78.0747 8.752C77.4827 8.752 76.9867 8.872 76.5867 9.112C76.1867 9.352 75.9867 9.712 75.9867 10.192C75.9867 10.624 76.1307 10.984 76.4187 11.272C76.7227 11.56 77.0987 11.824 77.5467 12.064C77.9947 12.304 78.4347 12.568 78.8667 12.856C79.3147 13.144 79.6827 13.504 79.9707 13.936C80.2747 14.352 80.4267 14.888 80.4267 15.544C80.4267 16.28 80.2187 16.936 79.8027 17.512C79.3867 18.072 78.8267 18.512 78.1227 18.832C77.4187 19.152 76.6427 19.312 75.7947 19.312Z" fill="black"/>
<path d="M70.2479 8.272L69.9359 7.72C71.0719 7.16 71.8879 6.584 72.3839 5.992C72.8959 5.384 73.1519 4.848 73.1519 4.384C73.1519 4.16 73.1039 4 73.0079 3.904C72.9279 3.808 72.8479 3.76 72.7679 3.76C72.6559 3.76 72.5519 3.824 72.4559 3.952C72.3759 4.064 72.2559 4.184 72.0959 4.312C71.9519 4.44 71.7279 4.504 71.4239 4.504C71.0239 4.504 70.7039 4.384 70.4639 4.144C70.2399 3.904 70.1279 3.584 70.1279 3.184C70.1279 2.72 70.2879 2.328 70.6079 2.008C70.9279 1.688 71.3599 1.528 71.9039 1.528C72.3359 1.528 72.7119 1.632 73.0319 1.84C73.3519 2.032 73.5919 2.304 73.7519 2.656C73.9279 2.992 74.0159 3.368 74.0159 3.784C74.0159 4.616 73.6719 5.432 72.9839 6.232C72.2959 7.016 71.3839 7.696 70.2479 8.272Z" fill="black"/>
<path d="M54.9516 26.536C54.5036 26.536 54.1516 26.416 53.8956 26.176C53.6396 25.952 53.5116 25.664 53.5116 25.312C53.5116 25.04 53.5996 24.792 53.7756 24.568C53.9356 24.344 54.1756 24.232 54.4956 24.232C54.7516 24.232 54.9516 24.296 55.0956 24.424C55.2396 24.568 55.3516 24.72 55.4316 24.88C55.5116 25.056 55.5916 25.208 55.6716 25.336C55.7676 25.48 55.8876 25.552 56.0316 25.552C56.2876 25.552 56.6636 25.312 57.1596 24.832C57.6556 24.352 58.1916 23.672 58.7676 22.792C59.3596 21.912 59.9036 20.88 60.3996 19.696L61.1676 17.896L64.0476 9.4C64.2556 8.808 64.5116 8.416 64.8156 8.224C65.1196 8.016 65.4316 7.912 65.7516 7.912C66.2156 7.912 66.5196 8.048 66.6636 8.32C66.8076 8.576 66.8796 8.816 66.8796 9.04C66.8796 9.36 66.7836 9.632 66.5916 9.856C66.3996 10.064 66.1676 10.168 65.8956 10.168C65.6716 10.168 65.5036 10.12 65.3916 10.024C65.2956 9.912 65.1676 9.856 65.0076 9.856C64.8956 9.856 64.7836 9.904 64.6716 10C64.5756 10.096 64.4796 10.28 64.3836 10.552L61.9596 17.536C61.2876 19.504 60.5436 21.152 59.7276 22.48C58.9276 23.824 58.1116 24.832 57.2796 25.504C56.4636 26.192 55.6876 26.536 54.9516 26.536ZM60.3276 20.176L57.3516 10.192C57.2396 9.84 57.1356 9.592 57.0396 9.448C56.9596 9.304 56.8476 9.232 56.7036 9.232C56.4636 9.232 56.2236 9.432 55.9836 9.832C55.7596 10.232 55.4236 10.944 54.9756 11.968L54.4956 11.752C54.7996 10.984 55.1036 10.312 55.4076 9.736C55.7276 9.16 56.0876 8.712 56.4876 8.392C56.8876 8.072 57.3676 7.912 57.9276 7.912C58.3756 7.912 58.7436 8.04 59.0316 8.296C59.3196 8.536 59.5596 8.984 59.7516 9.64L61.6956 16.12H61.7916L62.0076 17.032L60.3276 20.176Z" fill="black"/>
<path d="M46.4646 19.312C45.2806 19.312 44.3846 18.984 43.7766 18.328C43.1846 17.656 42.8886 16.832 42.8886 15.856C42.8886 15.664 42.9046 15.448 42.9366 15.208C42.9846 14.968 43.0646 14.6 43.1766 14.104L46.2966 0.903999H48.8646L45.3126 15.688C45.2806 15.848 45.2486 16.024 45.2166 16.216C45.1846 16.408 45.1686 16.616 45.1686 16.84C45.1686 17.416 45.2966 17.856 45.5526 18.16C45.8086 18.464 46.1606 18.616 46.6086 18.616C47.1526 18.616 47.6726 18.4 48.1686 17.968C48.6646 17.536 49.1046 16.96 49.4886 16.24C49.8886 15.504 50.2006 14.68 50.4246 13.768C50.6486 12.856 50.7606 11.92 50.7606 10.96C50.7606 10.144 50.6566 9.56 50.4486 9.208C50.2566 8.856 49.9046 8.68 49.3926 8.68C48.8326 8.68 48.2966 8.88 47.7846 9.28C47.2726 9.68 46.8006 10.296 46.3686 11.128L46.8726 9.016H47.0406C47.3446 8.712 47.7286 8.456 48.1926 8.248C48.6726 8.024 49.1846 7.912 49.7286 7.912C50.3686 7.912 50.9606 8.08 51.5046 8.416C52.0486 8.752 52.4886 9.24 52.8246 9.88C53.1606 10.52 53.3286 11.288 53.3286 12.184C53.3286 13.128 53.1366 14.032 52.7526 14.896C52.3846 15.744 51.8806 16.504 51.2406 17.176C50.6006 17.832 49.8646 18.352 49.0326 18.736C48.2166 19.12 47.3606 19.312 46.4646 19.312ZM43.8966 1.504V0.903999H48.5766V1.504H43.8966Z" fill="black"/>
<path d="M34.0896 19.312C32.9056 19.312 32.0096 18.984 31.4016 18.328C30.8096 17.656 30.5136 16.832 30.5136 15.856C30.5136 15.664 30.5296 15.448 30.5616 15.208C30.6096 14.968 30.6896 14.6 30.8016 14.104L33.9216 0.903999H36.4896L32.9376 15.688C32.9056 15.848 32.8736 16.024 32.8416 16.216C32.8096 16.408 32.7936 16.616 32.7936 16.84C32.7936 17.416 32.9216 17.856 33.1776 18.16C33.4336 18.464 33.7856 18.616 34.2336 18.616C34.7776 18.616 35.2976 18.4 35.7936 17.968C36.2896 17.536 36.7296 16.96 37.1136 16.24C37.5136 15.504 37.8256 14.68 38.0496 13.768C38.2736 12.856 38.3856 11.92 38.3856 10.96C38.3856 10.144 38.2816 9.56 38.0736 9.208C37.8816 8.856 37.5296 8.68 37.0176 8.68C36.4576 8.68 35.9216 8.88 35.4096 9.28C34.8976 9.68 34.4256 10.296 33.9936 11.128L34.4976 9.016H34.6656C34.9696 8.712 35.3536 8.456 35.8176 8.248C36.2976 8.024 36.8096 7.912 37.3536 7.912C37.9936 7.912 38.5856 8.08 39.1296 8.416C39.6736 8.752 40.1136 9.24 40.4496 9.88C40.7856 10.52 40.9536 11.288 40.9536 12.184C40.9536 13.128 40.7616 14.032 40.3776 14.896C40.0096 15.744 39.5056 16.504 38.8656 17.176C38.2256 17.832 37.4896 18.352 36.6576 18.736C35.8416 19.12 34.9856 19.312 34.0896 19.312ZM31.5216 1.504V0.903999H36.2016V1.504H31.5216Z" fill="black"/>
<path d="M20.7045 19.312C20.0325 19.312 19.4165 19.136 18.8565 18.784C18.2965 18.416 17.8485 17.896 17.5125 17.224C17.1765 16.552 17.0085 15.76 17.0085 14.848C17.0085 13.92 17.1845 13.04 17.5365 12.208C17.8885 11.376 18.3525 10.64 18.9285 10C19.5205 9.344 20.1765 8.832 20.8965 8.464C21.6325 8.096 22.3765 7.912 23.1285 7.912C23.8645 7.912 24.4085 8.08 24.7605 8.416C25.1125 8.752 25.3685 9.168 25.5285 9.664H25.6725L25.1685 11.848C25.1845 11.672 25.2005 11.52 25.2165 11.392C25.2325 11.264 25.2405 11.12 25.2405 10.96C25.2405 10.272 25.0645 9.712 24.7125 9.28C24.3765 8.832 23.9445 8.608 23.4165 8.608C22.9365 8.608 22.4965 8.792 22.0965 9.16C21.7125 9.512 21.3685 9.984 21.0645 10.576C20.7605 11.168 20.5045 11.808 20.2965 12.496C20.0885 13.168 19.9285 13.832 19.8165 14.488C19.7205 15.144 19.6725 15.712 19.6725 16.192C19.6725 16.96 19.8005 17.544 20.0565 17.944C20.3125 18.344 20.6885 18.544 21.1845 18.544C21.5205 18.544 21.8725 18.44 22.2405 18.232C22.6085 18.024 22.9765 17.656 23.3445 17.128C23.7285 16.6 24.0885 15.864 24.4245 14.92L24.1365 17.32H23.9925C23.6405 17.96 23.1685 18.456 22.5765 18.808C21.9845 19.144 21.3605 19.312 20.7045 19.312ZM25.8165 19.312C25.5605 19.312 25.2965 19.24 25.0245 19.096C24.7525 18.968 24.5285 18.744 24.3525 18.424C24.1765 18.088 24.0885 17.632 24.0885 17.056C24.0885 16.816 24.1045 16.552 24.1365 16.264C24.1845 15.976 24.2485 15.656 24.3285 15.304L26.0085 8.2H28.3365L26.5605 15.472C26.4485 15.968 26.3605 16.392 26.2965 16.744C26.2325 17.08 26.2005 17.36 26.2005 17.584C26.2005 18.048 26.3365 18.28 26.6085 18.28C26.8805 18.28 27.2165 18.04 27.6165 17.56C28.0325 17.064 28.4405 16.336 28.8405 15.376L29.3205 15.592C29.0805 16.184 28.7845 16.768 28.4325 17.344C28.0965 17.904 27.7045 18.376 27.2565 18.76C26.8245 19.128 26.3445 19.312 25.8165 19.312Z" fill="black"/>
<path d="M6.99999 19.312C5.91199 19.312 4.96799 19.144 4.16799 18.808C3.38399 18.456 2.71999 18 2.17599 17.44C1.64799 16.864 1.22399 16.232 0.903991 15.544C0.583991 14.84 0.351991 14.136 0.207991 13.432C0.0799911 12.728 0.0159912 12.072 0.0159912 11.464C0.0159912 10.472 0.175991 9.472 0.495991 8.464C0.815991 7.44 1.27199 6.464 1.86399 5.536C2.47199 4.608 3.19199 3.776 4.02399 3.04C4.87199 2.304 5.81599 1.72 6.85599 1.288C7.89599 0.855999 9.01599 0.639999 10.216 0.639999C10.936 0.639999 11.6 0.743999 12.208 0.952C12.832 1.16 13.464 1.56 14.104 2.152L15.28 0.904H15.88L14.752 6.016H14.152C14.152 5.04 13.968 4.208 13.6 3.52C13.248 2.816 12.768 2.28 12.16 1.912C11.552 1.528 10.872 1.336 10.12 1.336C9.31999 1.336 8.59199 1.544 7.93599 1.96C7.29599 2.376 6.71999 2.944 6.20799 3.664C5.71199 4.368 5.27999 5.168 4.91199 6.064C4.54399 6.944 4.23999 7.864 3.99999 8.824C3.77599 9.768 3.60799 10.696 3.49599 11.608C3.38399 12.52 3.32799 13.344 3.32799 14.08C3.32799 15.216 3.45599 16.112 3.71199 16.768C3.96799 17.424 4.34399 17.888 4.83999 18.16C5.35199 18.416 5.97599 18.544 6.71199 18.544C7.55999 18.544 8.26399 18.376 8.82399 18.04C9.38399 17.688 9.83999 17.096 10.192 16.264C10.56 15.432 10.872 14.296 11.128 12.856H14.848C14.448 14.344 13.848 15.568 13.048 16.528C12.264 17.472 11.344 18.176 10.288 18.64C9.24799 19.088 8.15199 19.312 6.99999 19.312ZM8.58399 12.928V12.328H16.672V12.928H8.58399Z" fill="black"/>
</svg>
