<svg width="139" height="48" viewBox="0 0 139 48" fill="none" xmlns="http://www.w3.org/2000/svg">
<g clip-path="url(#clip0_158_127)">
<path d="M16.8182 26.149C16.8182 26.149 16.8053 26.1589 16.801 26.1637C16.7365 26.2131 16.3367 26.5241 16.3704 26.8287C16.3798 26.9243 16.4146 27.2518 17.1035 27.1714C17.4236 27.1349 17.8696 26.9403 18.1269 26.2942C18.1269 26.2942 19.2697 24.3533 18.9747 20.2887C18.9747 20.2887 18.3748 13.7843 12.347 14.4746C7.70158 15.004 3.98209 19.434 1.95511 24.4268C0.449483 28.1728 -0.140661 32.242 0.180363 35.2528C0.624863 39.4416 2.99101 43.6951 7.5874 43.1685C11.2637 42.7491 13.4923 37.6763 13.7636 34.0141C13.7734 33.858 13.9675 33.8058 14.0548 33.9381C14.448 34.538 15.1915 35.8593 15.8531 37.2401C15.888 37.3113 15.8655 37.395 15.8052 37.4396C14.8037 38.2194 13.7974 39.2558 13.0205 40.4027C11.8101 42.1598 11.2185 44.0374 11.365 45.4018C11.5463 47.0936 12.7373 48.2476 14.1642 48.0841C17.4315 47.7108 18.3231 43.4186 18.0463 40.8308C17.9438 39.8849 17.7077 38.8643 17.2605 37.8236C17.2297 37.7475 17.2517 37.6548 17.3256 37.614C17.7599 37.3651 18.2025 37.189 18.6067 37.0516C18.6157 37.0511 18.6246 37.0506 18.6335 37.0501C19.3088 36.9659 19.4026 36.5305 19.3772 36.2986C19.3586 36.112 19.1601 35.9906 18.6978 36.0444C18.1421 36.108 17.5283 36.3442 16.9209 36.7036C16.8427 36.7492 16.743 36.7228 16.7031 36.6427C16.261 35.7893 15.3659 34.2159 14.0378 32.484C14.0378 32.484 13.7178 32.0904 13.349 32.1342C13.2112 32.1512 12.9121 32.4199 12.9043 34.0858C12.9043 34.0858 12.9045 34.0904 12.9048 34.095C12.8881 34.2926 11.7572 41.655 7.5252 42.138C3.38662 42.6111 1.64848 38.569 1.31569 35.417C1.00384 32.4972 1.52386 28.6288 2.90798 25.0407C4.77121 20.254 8.23144 15.9988 12.5523 15.5061C16.5041 15.0528 17.6729 17.6814 17.9683 20.4557L17.9688 20.4648C17.9775 20.6336 18.1716 24.8229 16.8186 26.1581L16.8182 26.149ZM16.9791 40.8594C17.135 42.3193 16.9195 43.7729 16.37 45.1676C15.9329 46.3135 14.9423 47.047 14.0666 47.1471C13.2397 47.2398 12.4903 46.7562 12.3532 45.4874C12.2229 44.264 12.7399 42.5874 13.7071 41.1415C14.3501 40.1715 15.2397 39.215 16.1661 38.4531C16.252 38.3842 16.3792 38.4227 16.4158 38.5259C16.6983 39.3197 16.8989 40.0862 16.9838 40.8638L16.9791 40.8594Z" fill="#DD78A7"/>
<path d="M64.5873 30.8285C64.41 29.9884 64.0111 28.576 61.5714 17.1332C61.5707 17.1195 61.5655 17.1061 61.5606 17.0972C61.5205 17.0126 61.3438 16.7028 60.9796 16.7417C60.6022 16.7815 60.4534 17.0139 60.4003 17.3688L60.0426 21.594C59.9234 23.0039 59.3511 29.819 58.0854 29.9504C56.8196 30.0817 55.4813 26.8214 55.1489 23.4124C55.0244 22.1261 54.9887 20.9169 55.0533 19.4004C55.0523 19.3822 55.0603 19.3635 55.0638 19.345C55.0837 19.2982 55.1226 19.1863 55.1071 19.0592C55.0714 18.7138 54.7604 18.5716 54.5074 18.5997C54.0589 18.648 54.0857 19.1675 54.1067 19.5731C54.1071 19.5822 54.1074 19.5868 54.1078 19.5959C54.0336 20.9255 53.5051 22.1896 52.665 23.2154L52.4886 23.4311L52.3882 23.0438C52.2581 22.5987 52.0841 22.1698 51.8579 21.7668C51.6169 21.3371 51.3192 20.9336 50.9754 20.5875C50.6367 20.2548 50.2437 19.9938 49.8064 19.8267C49.3689 19.655 48.9084 19.6447 48.4239 19.7727C47.8604 19.9282 47.3238 20.2603 46.8227 20.7596C46.3008 21.2874 45.8309 21.8717 45.4163 22.4895C44.9892 23.1262 44.6128 23.792 44.2688 24.4789C44.0463 24.9257 43.8442 25.3348 43.6669 25.706C43.594 25.8518 43.3777 25.8138 43.3648 25.65C43.362 25.5953 43.3589 25.5361 43.3512 25.4725L43.2651 24.3257C43.2358 23.9297 43.2256 23.5601 43.2082 23.2229C43.2025 23.1135 43.2074 23.0355 43.2081 22.9624C43.2069 22.9396 43.2147 22.9163 43.2224 22.893C43.4955 22.3016 43.7458 21.7023 43.9734 21.0952C44.0053 21.0203 44.0151 20.9512 44.0203 20.8778C44.0959 20.6998 44.1582 20.5226 44.2289 20.3357C44.586 19.3831 44.9068 18.4187 45.1868 17.443C45.498 16.3787 45.7682 15.2984 46.0025 14.2156C46.2443 13.105 46.4385 12.0244 46.5666 10.9614C46.6997 9.90717 46.7829 8.92436 46.7836 7.98738C46.7888 7.05014 46.6942 6.25569 46.5305 5.59314C46.4646 5.35465 46.3673 5.11338 46.2578 4.89565C46.1483 4.67792 46.0044 4.485 45.8434 4.30677C45.6741 4.14271 45.4806 4.02574 45.2629 3.96042C45.1677 3.93384 45.0688 3.92118 44.9706 3.92219C44.8947 3.92193 44.8335 3.86142 44.8206 3.78446C44.7291 3.22292 44.6088 2.70873 44.4561 2.26037C44.3624 2.00061 44.2472 1.76035 44.1014 1.53098C43.9648 1.30565 43.7934 1.10058 43.5928 0.933738C43.3969 0.771199 43.1771 0.664864 42.9331 0.610175C42.6896 0.564601 42.4007 0.590166 42.0854 0.708645C41.6599 0.856236 41.3174 1.22763 41.0527 1.80941C40.797 2.39069 40.5891 3.12007 40.4552 3.98692C40.4562 4.00515 40.4574 4.02794 40.4576 4.03249C40.3667 4.0011 40.2675 3.98388 40.1687 3.97122C39.931 3.95274 39.6841 4.01248 39.4097 4.14691C39.0398 4.33248 38.7645 4.70919 38.5971 5.27173C38.4297 5.83428 38.3263 6.51201 38.292 7.31836C38.2625 8.21585 38.2911 9.1146 38.3775 10.0101C38.4731 10.9964 38.6006 11.9947 38.7663 13.041C38.9312 14.0737 39.118 15.096 39.3273 16.1216C39.5358 17.1335 39.7411 18.0817 39.943 18.966C40.1058 19.6972 40.2817 20.423 40.4623 21.1532C40.5487 21.5276 40.6994 21.9395 40.756 22.3431C40.8093 22.6828 40.9699 23.1124 41.0321 23.4517C41.1062 23.7628 41.1944 24.0869 41.2849 24.4565C41.2959 24.497 41.2894 24.5431 41.269 24.5808C41.1013 24.8783 40.9247 25.1763 40.7432 25.4654C40.6773 25.5743 40.5206 25.5649 40.4655 25.4492L40.4451 25.4001C40.2643 25.0127 40.0121 24.6249 39.6926 24.2317C39.3872 23.8514 39.0169 23.5114 38.6185 23.2324C38.2294 22.962 37.7999 22.7716 37.3354 22.6838C36.8799 22.5954 36.423 22.6534 35.9609 22.8716C35.4335 23.121 34.9636 23.5316 34.5518 24.1172C34.1311 24.7033 33.7715 25.3499 33.4598 26.0577C33.1478 26.761 32.8903 27.4795 32.6781 28.2137C32.5339 28.7064 32.4094 29.1476 32.2916 29.5474C32.2462 29.7054 32.0229 29.7044 31.9877 29.5418C31.9757 29.4831 31.9593 29.4246 31.9424 29.357C31.857 29.0008 31.7618 28.6269 31.6663 28.2484C31.5807 27.8876 31.4914 27.5408 31.4191 27.1792C31.3529 26.8493 31.333 26.6357 31.3693 26.5605C31.5711 25.8863 31.7528 25.0807 31.9367 24.147C32.1216 23.1447 32.2753 22.1442 32.3838 21.1325C32.5012 20.0335 32.5869 18.9272 32.641 17.8135C32.6808 16.6823 32.6906 15.5757 32.6402 14.5136C32.5943 13.4513 32.4987 12.465 32.3396 11.5462C32.1805 10.6275 31.9579 9.86313 31.6714 9.24412C31.5659 9.01702 31.43 8.80537 31.2811 8.60359C31.1459 8.40561 30.9631 8.23776 30.7683 8.098C30.5827 7.9623 30.3601 7.88812 30.1311 7.86457C29.8931 7.83697 29.6454 7.88304 29.3668 8.02228C28.9875 8.19924 28.7029 8.56735 28.5125 9.11748C28.3221 9.66762 28.2011 10.3509 28.1399 11.1542C28.0783 11.9484 28.0799 12.8441 28.1403 13.8416C28.1959 14.8303 28.3018 15.8435 28.4225 16.8832C28.5474 17.9182 28.7077 18.9466 28.8769 19.9745C29.0547 20.9973 29.2291 21.9517 29.4001 22.8424C29.5573 23.7247 29.7224 24.5014 29.8775 25.169C29.9603 25.5619 30.2428 26.1903 30.043 26.5582C29.9737 26.6855 29.9046 26.8174 29.8353 26.9448C29.7826 27.0483 29.7256 27.1567 29.7182 27.2714C29.7123 27.4179 29.7909 27.5552 29.8732 27.6785C29.9596 27.7969 30.2088 28.0387 30.3339 27.8671C30.354 27.8248 30.384 27.8002 30.4042 27.758C30.4616 28.0061 30.5102 28.2547 30.5693 28.5347C30.6666 28.9496 30.7687 29.3689 30.8749 29.7833C31.0914 30.6028 31.3784 31.4046 31.5377 32.2411C31.697 33.0776 31.5123 33.9108 31.359 34.7467C31.2444 35.3794 31.0086 37.125 30.1458 37.1924C28.3589 37.3488 27.5004 32.8317 27.2724 30.7514C27.2715 30.7332 27.2705 30.7149 27.2785 30.6962C27.29 30.659 27.3038 30.5805 27.2941 30.4805C27.2617 30.199 27.1382 29.8815 26.6763 29.9306C26.1259 29.9939 25.9812 30.3906 26.016 30.7177C26.1018 31.083 26.1551 31.5965 26.2687 32.239C26.2694 32.2527 26.2701 32.2664 26.2708 32.28C26.1122 34.3092 25.6072 39.1414 23.8182 39.3437C21.9361 39.5604 21.2821 36.4942 21.1494 35.222C21.0008 33.8136 21.1208 31.0371 21.9776 28.6072C22.7293 26.4758 23.8728 24.5826 25.2489 24.4267C26.9046 24.2365 27.3353 26.0905 27.4748 27.408C27.5025 27.6852 27.4904 27.9693 27.5181 28.2465C27.5186 28.2556 27.5188 28.2602 27.5193 28.2693C27.5366 28.346 27.6591 28.8144 28.0363 28.7701C28.4492 28.7238 28.51 28.4324 28.4123 27.4918C28.289 26.3151 27.8265 23.3249 25.212 23.6244C23.2367 23.8509 21.8647 25.8165 21.0336 28.053C20.1674 30.3875 19.9028 33.1311 20.1212 35.1982C20.3535 37.3606 21.5254 40.5115 23.9578 40.2316C24.9921 40.1134 26.4962 39.0635 26.8165 35.1512C26.8298 34.9768 27.0646 34.9406 27.1223 35.1064C27.6494 36.5801 28.537 38.3762 30.2016 38.1855C30.8542 38.1119 31.3002 37.5838 31.588 37.019C31.9483 36.2992 32.144 35.5065 32.2638 34.7136C32.5468 32.8465 32.9084 30.9429 33.4434 29.1117C33.6059 28.5403 33.7822 27.9773 33.9895 27.4079C34.188 26.8436 34.4152 26.3142 34.6754 25.8195C34.9356 25.3248 35.2038 24.8982 35.5187 24.5101C35.8298 24.1359 36.1587 23.8476 36.5383 23.6752C36.8564 23.5245 37.1632 23.498 37.4577 23.5818C37.7478 23.6658 38.0241 23.8284 38.263 24.0433C38.5062 24.258 38.7294 24.515 38.9181 24.7968C39.1159 25.0826 39.2685 25.3573 39.3841 25.6067C39.574 25.9981 39.7112 26.4062 39.8228 26.8386C39.8341 26.8837 39.8278 26.9343 39.7985 26.9725C39.5579 27.329 39.2675 27.7568 38.9365 28.2647C38.5891 28.8009 38.234 29.3604 37.8548 29.9715C37.4758 30.5873 37.1287 31.2149 36.8005 31.8642C36.4801 32.4903 36.2007 33.1324 35.9712 33.7898C35.7497 34.4286 35.62 35.0301 35.5693 35.6043C35.5322 36.1823 35.5944 36.6952 35.819 37.1532C35.9299 37.3983 36.0931 37.6175 36.3019 37.7702C36.5023 37.9325 36.7272 38.0522 36.986 38.1335C37.4938 38.2829 38.0404 38.2335 38.5287 38.0047C39.0301 37.7705 39.4485 37.3993 39.8104 36.8852C40.1723 36.371 40.4501 35.7839 40.6611 35.1137C40.8795 34.4158 41.0347 33.7031 41.1358 32.9798C41.2441 32.2241 41.2948 31.4762 41.3051 30.7261C41.3157 29.9805 41.2844 29.2875 41.228 28.628C41.1824 28.0045 41.0834 27.4708 40.9715 27.0338C40.9603 26.9887 40.9668 26.9427 40.9916 26.9047C41.1446 26.6675 41.2931 26.4305 41.4414 26.189C41.5112 26.0708 41.6865 26.0928 41.7289 26.2229C41.8199 26.5148 41.9104 26.7976 42.0051 27.0756C42.1796 27.6004 42.8307 29.4007 43.6284 28.4184C44.1908 27.7238 44.4703 26.3047 44.874 25.4774C45.1364 24.9369 45.4085 24.4141 45.7032 23.8946C45.9854 23.3941 46.3038 22.9006 46.6465 22.447C46.9601 22.0361 47.3106 21.6459 47.6901 21.2999C48.0579 20.9864 48.4396 20.7682 48.8398 20.6495C49.1788 20.5571 49.4834 20.5763 49.763 20.7158C50.0426 20.8553 50.2763 21.0569 50.4858 21.31C50.6912 21.568 50.8531 21.8513 51.0081 22.1716C51.1453 22.4929 51.254 22.7837 51.3167 23.0453C51.4321 23.4638 51.5034 23.8939 51.5396 24.3352C51.5422 24.3853 51.5267 24.4319 51.4928 24.4658C51.1322 24.8337 50.7766 25.2104 50.4343 25.5863C49.9726 26.0696 49.5249 26.5658 49.0916 27.0795C48.6195 27.6228 48.1573 28.1838 47.7319 28.7656C47.3098 29.3243 46.9252 29.9175 46.586 30.5264C46.264 31.1206 46.0293 31.6778 45.88 32.2439C45.7348 32.8052 45.73 33.3173 45.8539 33.813C45.9261 34.0877 46.0494 34.3138 46.2205 34.5143C46.3869 34.7105 46.5868 34.8637 46.8256 34.9918C46.8256 34.9918 46.8348 34.9959 46.8395 35.0002C47.082 35.1144 47.3182 35.1923 47.5826 35.2093C47.8516 35.2306 48.1138 35.2065 48.3783 35.1412C48.9156 34.9964 49.3912 34.6951 49.8286 34.2589C50.2821 33.7898 50.6738 33.2465 50.9649 32.6587C51.3061 32.004 51.5839 31.33 51.8024 30.632C52.0285 29.9108 52.2144 29.1872 52.3591 28.4431C52.4934 27.7591 52.587 27.0636 52.6442 26.3565C52.6965 25.7274 52.7002 25.1924 52.668 24.7418C52.6656 24.6962 52.6813 24.6542 52.7108 24.6205C52.7361 24.5917 52.7659 24.5626 52.7909 24.5291C53.195 24.1405 53.6078 23.5732 53.9439 22.9919C54.0217 22.8549 54.2251 22.9028 54.2378 23.062C54.261 23.3395 54.2852 23.6352 54.32 23.9623C54.6542 27.4077 56.2809 31.063 58.2981 30.8706C58.307 30.8701 58.3204 30.8694 58.3293 30.8689C60.3572 30.3651 60.762 24.0257 60.9234 21.7907C60.9706 21.3218 60.9996 20.8449 61.0192 20.3593C61.0273 20.1714 61.2893 20.1428 61.3346 20.3277C63.0922 28.0752 63.4567 29.5125 63.7876 30.9059C63.8104 31.0006 63.7481 31.091 63.655 31.1054C60.2471 31.6054 55.1232 32.6828 55.3332 34.8464C55.5897 37.4781 59.9763 38.8101 62.0859 38.5896C63.5605 38.4372 65.5387 37.7489 65.1906 34.1215C65.1344 33.5533 65.0326 32.8781 64.8723 32.0234C64.854 31.9285 64.9208 31.8379 65.0096 31.8282C65.5382 31.7753 66.1289 31.7143 66.7525 31.6835C66.797 31.6809 66.838 31.6969 66.8664 31.7273C66.9414 31.7961 67.1082 31.9146 67.3524 31.887C67.437 31.8822 68.527 31.7197 68.5512 31.0647C68.5516 30.6397 66.5104 30.8014 64.765 30.9829C64.6849 30.9875 64.6108 30.9368 64.5932 30.8556L64.5873 30.8285ZM30.8374 24.6483L30.8158 24.6632C30.6889 24.1083 30.565 23.4389 30.4074 22.6343C30.2586 21.8292 30.1031 20.9788 29.9527 20.055C29.7971 19.1177 29.6633 18.1701 29.5475 17.226C29.4325 16.2956 29.34 15.3685 29.2779 14.426C29.2095 13.5341 29.188 12.6852 29.2194 11.911L29.241 11.896C29.263 11.1132 29.3372 10.4737 29.458 9.95954C29.4678 9.89043 29.4938 9.7884 29.5282 9.67675C29.5668 9.56029 29.5963 9.43979 29.6528 9.32232C29.704 9.19143 29.7652 9.07826 29.8223 8.97446C29.871 8.88028 29.9477 8.80737 30.039 8.76104C30.1175 8.72459 30.2023 8.72434 30.2844 8.75624C30.3711 8.79244 30.4322 8.85295 30.4941 8.92713C30.5471 9.00182 30.5909 9.07245 30.6437 9.14258C30.6439 9.14714 30.6533 9.15575 30.658 9.16005C30.6927 9.22663 30.7222 9.2798 30.7466 9.31955C30.7515 9.32841 30.7562 9.33271 30.7611 9.34157C31.0282 9.92969 31.2425 10.6214 31.3912 11.4264C31.5407 12.2452 31.6482 13.1166 31.6923 14.0556C31.7415 15.0081 31.7511 15.9719 31.7201 16.9289C31.6854 17.8998 31.6278 18.8583 31.5481 19.8226C31.4541 20.7695 31.3613 21.6523 31.239 22.4819C31.1381 23.2098 31.0057 23.9303 30.851 24.6521L30.8374 24.6483ZM40.2909 30.1941L40.2918 30.2124C40.3091 30.8924 40.2727 31.5709 40.196 32.2471C40.1141 32.9099 39.9697 33.5717 39.7887 34.2173C39.5984 34.8542 39.3443 35.4674 39.0027 36.0307C38.873 36.2849 38.6847 36.5287 38.4832 36.7778C38.2768 37.0181 38.028 37.215 37.7492 37.3497C37.5008 37.4689 37.2743 37.491 37.087 37.4102C36.8953 37.3297 36.7439 37.1646 36.6293 36.9335C36.4832 36.6127 36.4405 36.2175 36.4959 35.7345C36.5649 35.2552 36.6946 34.7405 36.885 34.1904C37.0756 33.6448 37.3189 33.0825 37.6189 32.4941C37.9159 31.9334 38.2174 31.3724 38.524 30.8247C38.8402 30.2903 39.1318 29.7984 39.4169 29.3526C39.5946 29.0774 39.7514 28.8262 39.8919 28.608C39.9746 28.4799 40.1644 28.524 40.1811 28.6738C40.2419 29.1594 40.2725 29.665 40.2909 30.1941ZM40.2143 6.93028C40.182 8.0336 40.1903 9.14375 40.2205 10.2481C40.2611 11.3792 40.3153 12.5142 40.4093 13.6423C40.4943 14.771 40.5886 15.8168 40.6839 16.7986C40.7138 17.2037 40.7692 17.5845 40.8121 17.9842C40.6876 17.388 40.5672 16.787 40.4309 16.1366L40.4176 16.1373C40.2451 15.2193 40.0764 14.2874 39.9244 13.3317C39.7784 12.4076 39.6542 11.4732 39.5619 10.5506C39.4668 9.66021 39.4277 8.81689 39.4142 8.03612C39.4006 7.25534 39.4609 6.60748 39.5765 6.07987C39.5864 6.01076 39.6035 5.90923 39.6423 5.79733C39.6721 5.68138 39.7016 5.56087 39.7573 5.42973C39.8001 5.30846 39.8566 5.19099 39.9175 5.07327C39.962 4.9839 40.0337 4.90213 40.129 4.84643C40.2377 4.78998 40.3636 4.89251 40.3477 5.01682C40.2736 5.65633 40.2306 6.29406 40.2101 6.93509L40.2143 6.93028ZM44.6266 11.6978C44.7866 10.473 44.8988 9.2737 44.9557 8.12786C45.0124 6.97745 45.0009 5.89033 44.9226 4.89385L44.9212 4.86651C44.9212 4.86651 44.9863 4.83082 45.0212 4.81512L45.039 4.81411C45.1225 4.78651 45.2082 4.80449 45.2778 4.85538C45.3519 4.90601 45.4138 4.98019 45.4487 5.05133C45.4977 5.13539 45.5331 5.21564 45.5596 5.29641C45.5859 5.37261 45.607 5.4354 45.6224 5.47565C45.6227 5.48021 45.6229 5.48477 45.6231 5.48932C45.7803 6.11111 45.8756 6.8324 45.8828 7.66381C45.8926 8.54535 45.831 9.42638 45.7288 10.3006C45.6217 11.2528 45.4652 12.1986 45.2639 13.1424C45.0717 14.0903 44.8435 15.0311 44.5883 15.9688C44.3516 16.8324 44.0964 17.6833 43.828 18.5395C43.6817 18.9911 43.5217 19.439 43.3571 19.8825C43.2941 20.0461 43.0553 20.0048 43.0508 19.8314C43.0398 19.6172 43.0369 19.3889 43.0244 19.1473L43.0383 19.1557C43.1034 18.9463 43.1722 18.723 43.2401 18.4815C43.5379 17.4179 43.8085 16.3468 44.0295 15.2647C44.2722 14.0855 44.4741 12.8948 44.6269 11.7024L44.6266 11.6978ZM43.0813 14.7153C43.1025 14.1748 43.1019 13.6447 43.1268 13.0902C43.1749 12.1186 43.2515 11.1818 43.3431 10.2762C43.4397 9.37951 43.5534 8.55493 43.71 7.78276C43.8026 7.32959 43.8977 6.92199 44.022 6.56299C44.024 6.85996 44.0215 7.15718 44.0103 7.45947C43.9749 8.50354 43.8901 9.54129 43.7561 10.5773C43.6314 11.6218 43.4709 12.6639 43.2788 13.6986C43.2163 14.0449 43.1438 14.369 43.0813 14.7153ZM42.0355 12.7958L42.036 12.8049C41.9858 13.7355 41.9621 14.6601 41.9698 15.5875C41.9743 15.6741 41.9661 15.7751 41.9615 15.8576C41.9318 16.3209 41.9062 16.7748 41.8704 17.2065C41.8514 17.0111 41.841 16.8105 41.8175 16.6153C41.7241 15.67 41.6531 14.728 41.5997 13.7803C41.5298 12.7742 41.4759 11.7307 41.4485 10.681C41.4159 9.61796 41.4128 8.60806 41.4332 7.61968C41.4376 7.44576 41.4512 7.27588 41.4558 7.10651C41.4936 7.23233 41.5267 7.35386 41.5644 7.47968L41.5466 7.4807L41.5335 7.48601C41.7092 8.29414 41.8348 9.16909 41.9226 10.0919C41.9912 10.9884 42.0334 11.8909 42.0397 12.791L42.0355 12.7958ZM41.7558 5.39381C41.7209 5.32267 41.6637 5.2528 41.6107 5.17811C41.5915 5.15178 41.5807 5.11583 41.5835 5.08368C41.5896 5.02849 41.5999 4.96849 41.6018 4.9181C41.7014 4.08062 41.8484 3.38212 42.0388 2.83199L42.0378 2.81376L42.02 2.81477C42.0387 2.74515 42.0734 2.63806 42.1254 2.52084C42.1636 2.39527 42.2289 2.27729 42.2935 2.14564C42.2935 2.14564 42.2933 2.14109 42.2975 2.13628C42.3669 2.00893 42.4409 1.88589 42.525 1.78513C42.5997 1.67576 42.6854 1.6069 42.782 1.57399C42.8654 1.5464 42.9638 1.54994 43.0465 1.59552C43.1339 1.64539 43.1954 1.71046 43.2537 1.80312C43.3072 1.88692 43.3559 1.96642 43.4059 2.0687C43.4459 2.15326 43.4675 2.22516 43.4877 2.26972C43.4877 2.26972 43.4879 2.27427 43.4882 2.27883C43.6922 2.85682 43.8301 3.53912 43.9233 4.30623C43.9259 4.35636 43.9107 4.4075 43.8769 4.44598C43.7284 4.59611 43.5993 4.77712 43.4815 5.0032C43.2 5.51739 42.9703 6.17031 42.7741 6.95387C42.6971 7.27818 42.6257 7.62502 42.5553 7.99009C42.5412 7.89034 42.5175 7.77743 42.5081 7.68198L42.4943 7.67363C42.3129 6.75613 42.0597 6.00269 41.7558 5.39381ZM51.4431 27.7411L51.4436 27.7502C51.3402 28.4279 51.2005 29.094 50.9977 29.75C50.8034 30.3963 50.55 31.0232 50.2464 31.63C49.9474 32.2366 49.5918 32.787 49.1617 33.2776C48.9687 33.5171 48.7522 33.7351 48.521 33.9265C48.2642 34.1422 47.9903 34.2857 47.6951 34.3619C47.427 34.4457 47.2018 34.4083 47.0307 34.2946C46.855 34.1766 46.7335 33.987 46.6674 33.7439C46.5738 33.4019 46.611 32.9976 46.7438 32.5421C46.8896 32.0814 47.1013 31.5986 47.392 31.0884C47.6949 30.5548 48.0301 30.0421 48.4067 29.5545C48.7872 29.053 49.1765 28.5509 49.5935 28.0656C49.9592 27.6243 50.3431 27.1912 50.7184 26.7631C50.9423 26.5173 51.141 26.3003 51.3183 26.1028C51.4198 25.9919 51.6026 26.0729 51.5925 26.2243C51.565 26.7287 51.511 27.2391 51.4389 27.7459L51.4431 27.7411ZM61.9484 37.7428C60.1762 37.9258 56.3562 36.7581 56.1643 34.7717C56.0974 34.0808 57.2764 33.479 58.5086 33.0434C60.312 32.4289 62.1083 32.1074 63.8357 31.9224C63.9158 31.9178 63.9898 31.9685 64.0077 32.0543C64.1653 32.8589 64.3183 33.6592 64.3852 34.3501C64.5593 36.1638 63.6317 37.5694 61.9439 37.743L61.9484 37.7428Z" fill="#DD78A7"/>
<path d="M62.8741 14.7824C63.0922 14.8478 63.2234 14.8769 63.3525 14.865C63.5616 14.844 63.6327 14.6615 63.6615 14.5271C64.8188 11.0431 65.8702 9.14382 65.8344 8.79808C65.8177 8.64802 65.7543 8.54637 65.6475 8.47007C65.3134 8.23737 64.8536 8.42824 64.7307 8.8196C64.6306 9.13189 64.5873 9.50501 64.5178 9.71945C63.9003 11.7039 62.8627 14.2156 62.7982 14.4389C62.7604 14.4868 62.7715 14.6143 62.7783 14.6597C62.7804 14.7008 62.8741 14.7824 62.8741 14.7824Z" fill="#DD78A7"/>
<path d="M69.6534 21.2367C68.8005 19.8892 68.1526 18.9558 67.6782 18.0033C67.6777 17.9942 67.673 17.9899 67.6681 17.981C67.6103 17.8149 67.5504 17.6078 67.5327 17.4395C67.4567 16.6612 67.6346 16.2941 67.5761 15.2493C67.5114 14.6031 67.3018 14.1848 66.7478 14.2025C66.0712 14.273 65.9668 14.938 66.0071 15.3705C66.133 16.6814 66.4914 17.5535 66.5673 17.7231C66.5774 17.7454 66.583 17.768 66.5798 17.7911C66.5435 21.244 66.1924 24.3212 66.0098 25.6359C66.0001 25.7097 65.9447 25.7632 65.8738 25.7764C65.7982 25.7852 65.7587 25.8012 65.7024 25.8364C65.7024 25.8364 65.4175 25.9533 65.4467 26.2583C65.4512 26.345 65.4646 26.4312 65.5137 26.5154C65.5137 26.5154 66.8835 29.2065 69.9462 29.1515C69.9507 29.1512 69.9596 29.1507 69.9641 29.1505C71.3926 28.9961 72.1583 28.138 72.098 26.6265C72.0976 26.6174 72.0971 26.6082 72.0966 26.5991C71.7666 24.5446 70.8111 23.0291 69.6531 21.2321L69.6534 21.2367ZM69.8324 28.4211C69.703 28.4285 67.8012 28.5182 66.6983 26.5762C66.6786 26.5407 66.672 26.4999 66.679 26.4629C67.2007 23.6552 67.3436 21.0521 67.386 19.7087C67.3911 19.5482 67.5985 19.4907 67.6816 19.6278C69.01 21.8636 70.8411 24.6475 71.0153 26.4592C71.1024 27.365 70.7267 28.32 69.8455 28.4158C69.8411 28.416 69.8366 28.4163 69.8321 28.4165L69.8324 28.4211Z" fill="#DD78A7"/>
<path d="M80.9042 24.4859L80.9042 25.677C80.3612 25.1911 79.801 24.9472 79.2217 24.9472C78.5831 24.9472 78.0458 25.1932 77.608 25.6852C77.1682 26.1752 76.9483 26.7739 76.9483 27.4812C76.9483 28.1885 77.1682 28.7707 77.608 29.2505C78.0477 29.7302 78.5869 29.9721 79.2255 29.9721C79.5563 29.9721 79.8354 29.9147 80.0667 29.7999C80.1949 29.7425 80.3287 29.6646 80.4664 29.5662C80.604 29.4678 80.7493 29.3509 80.9023 29.2115L80.9023 30.4252C80.365 30.7512 79.8029 30.9131 79.2121 30.9131C78.323 30.9131 77.5659 30.581 76.9388 29.9168C76.3136 29.2464 76 28.4386 76 27.4914C76 26.6427 76.2619 25.8861 76.7858 25.2219C77.4301 24.408 78.2638 24 79.2848 24C79.843 24 80.3822 24.162 80.9023 24.4879L80.9042 24.4859Z" fill="#6E7C9D"/>
<path d="M83.3081 27.4341C83.3081 26.5102 83.6381 25.7173 84.296 25.0556C84.9519 24.3939 85.7395 24.0611 86.6606 24.0611C87.5817 24.0611 88.3496 24.3959 89.0016 25.0637C89.6556 25.7314 89.9816 26.5344 89.9816 27.4724C89.9816 28.4105 89.6537 29.2155 88.9977 29.8711C88.3398 30.5308 87.5444 30.8616 86.6115 30.8616C85.7866 30.8616 85.0462 30.5691 84.3903 29.9821C83.6675 29.3345 83.3062 28.4852 83.3062 27.4341L83.3081 27.4341ZM84.2803 27.4482C84.2803 28.1725 84.5179 28.7696 84.9912 29.2356C85.4626 29.7037 86.0066 29.9357 86.6252 29.9357C87.2949 29.9357 87.8606 29.6976 88.3201 29.2215C88.7797 28.7394 89.0114 28.1543 89.0114 27.4624C89.0114 26.7704 88.7836 26.1773 88.33 25.7032C87.8782 25.2271 87.3185 24.989 86.6508 24.989C85.983 24.989 85.4253 25.2271 84.9677 25.7032C84.5101 26.1733 84.2822 26.7543 84.2822 27.4442L84.2803 27.4482Z" fill="#6E7C9D"/>
<path d="M92.5051 27.4341C92.5051 26.5102 92.8351 25.7173 93.493 25.0556C94.149 24.3939 94.9365 24.0611 95.8576 24.0611C96.7787 24.0611 97.5466 24.3959 98.1986 25.0637C98.8526 25.7314 99.1787 26.5344 99.1787 27.4724C99.1787 28.4105 98.8507 29.2155 98.1947 29.8711C97.5368 30.5308 96.7414 30.8616 95.8085 30.8616C94.9837 30.8616 94.2432 30.5691 93.5873 29.9821C92.8645 29.3345 92.5032 28.4852 92.5032 27.4341L92.5051 27.4341ZM93.4773 27.4482C93.4773 28.1725 93.7149 28.7696 94.1882 29.2356C94.6596 29.7037 95.2036 29.9357 95.8223 29.9357C96.492 29.9357 97.0576 29.6976 97.5172 29.2215C97.9767 28.7394 98.2085 28.1543 98.2085 27.4624C98.2085 26.7704 97.9806 26.1773 97.527 25.7032C97.0753 25.2271 96.5155 24.989 95.8478 24.989C95.18 24.989 94.6223 25.2271 94.1647 25.7032C93.7071 26.1733 93.4793 26.7543 93.4793 27.4442L93.4773 27.4482Z" fill="#6E7C9D"/>
<path d="M102.987 26.8027L105.471 24.1861L106.758 24.1861L103.873 27.1557L106.775 30.7446L105.485 30.7446L103.185 27.8275L102.987 28.0313L102.987 30.7446L102.023 30.7446L102.023 24.1861L102.987 24.1861L102.987 26.8027Z" fill="#6E7C9D"/>
<path d="M109.283 30.7426L109.283 24.1841L110.242 24.1841C110.67 24.1841 111.01 24.2184 111.263 24.287C111.52 24.3556 111.736 24.4706 111.913 24.632C112.092 24.7994 112.233 25.0072 112.339 25.2574C112.447 25.5095 112.5 25.7637 112.5 26.0219C112.5 26.492 112.326 26.8894 111.976 27.2162C112.316 27.3353 112.583 27.543 112.777 27.8416C112.976 28.1362 113.076 28.4791 113.076 28.8685C113.076 29.3809 112.899 29.8146 112.548 30.1677C112.335 30.3855 112.098 30.5368 111.833 30.6216C111.544 30.7043 111.181 30.7446 110.745 30.7446L109.285 30.7446L109.283 30.7426ZM110.246 27.0024L110.548 27.0024C110.906 27.0024 111.169 26.9217 111.336 26.7583C111.503 26.5949 111.585 26.3548 111.585 26.0381C111.585 25.7214 111.499 25.4954 111.328 25.336C111.157 25.1767 110.91 25.096 110.584 25.096L110.244 25.096L110.244 27.0024L110.246 27.0024ZM110.246 29.8126L110.841 29.8126C111.277 29.8126 111.597 29.7259 111.799 29.5483C112.013 29.3587 112.121 29.1186 112.121 28.8261C112.121 28.5336 112.017 28.3056 111.811 28.1119C111.611 27.9223 111.249 27.8275 110.733 27.8275L110.246 27.8275L110.246 29.8106L110.246 29.8126Z" fill="#6E7C9D"/>
<path d="M115.535 27.4341C115.535 26.5102 115.865 25.7173 116.523 25.0556C117.179 24.3939 117.966 24.0611 118.887 24.0611C119.808 24.0611 120.576 24.3959 121.228 25.0637C121.882 25.7314 122.208 26.5344 122.208 27.4724C122.208 28.4105 121.88 29.2155 121.224 29.8711C120.566 30.5308 119.771 30.8616 118.838 30.8616C118.013 30.8616 117.273 30.5691 116.617 29.9821C115.894 29.3345 115.533 28.4852 115.533 27.4341L115.535 27.4341ZM116.507 27.4482C116.507 28.1725 116.744 28.7696 117.218 29.2356C117.689 29.7037 118.233 29.9357 118.852 29.9357C119.522 29.9357 120.087 29.6976 120.547 29.2215C121.006 28.7394 121.238 28.1543 121.238 27.4624C121.238 26.7704 121.01 26.1773 120.557 25.7032C120.105 25.2271 119.545 24.989 118.877 24.989C118.21 24.989 117.652 25.2271 117.194 25.7032C116.737 26.1733 116.509 26.7543 116.509 27.4442L116.507 27.4482Z" fill="#6E7C9D"/>
<path d="M124.732 27.4341C124.732 26.5102 125.062 25.7173 125.72 25.0556C126.376 24.3939 127.163 24.0611 128.084 24.0611C129.005 24.0611 129.773 24.3959 130.425 25.0637C131.079 25.7314 131.405 26.5344 131.405 27.4724C131.405 28.4105 131.077 29.2155 130.421 29.8711C129.763 30.5308 128.968 30.8616 128.035 30.8616C127.21 30.8616 126.47 30.5691 125.814 29.9821C125.091 29.3345 124.73 28.4852 124.73 27.4341L124.732 27.4341ZM125.704 27.4482C125.704 28.1725 125.942 28.7696 126.415 29.2356C126.886 29.7037 127.43 29.9357 128.049 29.9357C128.719 29.9357 129.284 29.6976 129.744 29.2215C130.203 28.7394 130.435 28.1543 130.435 27.4624C130.435 26.7704 130.207 26.1773 129.754 25.7032C129.302 25.2271 128.742 24.989 128.074 24.989C127.407 24.989 126.849 25.2271 126.391 25.7032C125.934 26.1733 125.704 26.7543 125.704 27.4442L125.704 27.4482Z" fill="#6E7C9D"/>
<path d="M135.214 26.8027L137.698 24.1861L138.984 24.1861L136.097 27.1557L139 30.7446L137.71 30.7446L135.41 27.8275L135.212 28.0313L135.212 30.7446L134.249 30.7446L134.249 24.1861L135.212 24.1861L135.212 26.8027L135.214 26.8027Z" fill="#6E7C9D"/>
</g>
<defs>
<clipPath id="clip0_158_127">
<rect width="139" height="48" fill="white"/>
</clipPath>
</defs>
</svg>
