<svg width="176" height="96" viewBox="0 0 176 96" fill="none" xmlns="http://www.w3.org/2000/svg">
<g clip-path="url(#clip0_157_9)">
<path d="M33.6251 51.0192C33.6251 51.0192 33.5993 51.0389 33.5909 51.0485C33.462 51.147 32.663 51.7667 32.7304 52.3741C32.7493 52.5646 32.8191 53.2174 34.1962 53.0578C34.836 52.9852 35.7275 52.5975 36.2414 51.3097C36.2414 51.3097 38.5246 47.4409 37.9322 39.3372C37.9322 39.3372 36.7287 26.3692 24.6796 27.7413C15.3938 28.7935 7.96147 37.6229 3.91283 47.5753C0.905548 55.0426 -0.27147 63.1547 0.372236 69.1574C1.26354 77.5089 5.99625 85.9906 15.1841 84.9439C22.5327 84.1103 26.9842 73.9983 27.5242 66.6974C27.5437 66.3862 27.9316 66.2822 28.1063 66.5461C28.8927 67.7424 30.3797 70.3771 31.7032 73.1304C31.7732 73.2724 31.7282 73.4392 31.6077 73.5281C29.6061 75.0821 27.5953 77.1476 26.043 79.4335C23.6246 82.9359 22.4432 86.6787 22.737 89.3989C23.1005 92.7719 25.482 95.0734 28.3343 94.7485C34.8654 94.0066 36.6449 85.4499 36.0899 80.2906C35.8843 78.4048 35.4117 76.3697 34.5169 74.2947C34.4554 74.143 34.4994 73.9581 34.6471 73.8768C35.5151 73.3809 36.3996 73.0301 37.2077 72.7565C37.2255 72.7555 37.2433 72.7545 37.2611 72.7535C38.6111 72.5862 38.7982 71.7182 38.7473 71.2558C38.71 70.8839 38.313 70.6417 37.389 70.7485C36.2783 70.8749 35.0514 71.3454 33.8374 72.0615C33.6812 72.1524 33.4818 72.0998 33.402 71.9401C32.5177 70.2384 30.7273 67.1008 28.0713 63.6471C28.0713 63.6471 27.4315 62.8622 26.6942 62.9493C26.4188 62.9831 25.821 63.5185 25.8065 66.8398C25.8065 66.8398 25.807 66.8489 25.8075 66.858C25.7744 67.2521 23.5184 81.9293 15.0591 82.8893C6.78637 83.8297 3.30917 75.7699 2.64185 69.4857C2.01654 63.6644 3.05353 55.9524 5.818 48.7999C9.53945 39.2581 16.4536 30.7771 25.0908 29.798C32.9901 28.8969 35.3282 34.1382 35.9205 39.6694L35.9214 39.6876C35.939 40.0242 36.3298 48.3764 33.6261 51.0374L33.6251 51.0192ZM33.9565 80.3469C34.2692 83.2576 33.8393 86.1553 32.7418 88.9356C31.8687 91.2197 29.8891 92.6814 28.1386 92.8803C26.4856 93.0647 24.9873 92.1 24.7124 89.5704C24.4511 87.1312 25.4836 83.789 27.4159 80.907C28.7006 78.9736 30.4783 77.0673 32.3298 75.549C32.5014 75.4117 32.7557 75.4885 32.829 75.6942C33.3942 77.277 33.7957 78.8052 33.9659 80.3555L33.9565 80.3469Z" fill="#DD78A7"/>
<path d="M129.171 60.3667C128.816 58.6915 128.018 55.8747 123.132 33.0551C123.131 33.0278 123.12 33.001 123.11 32.9834C123.03 32.8147 122.677 32.1967 121.949 32.2741C121.194 32.3531 120.896 32.8165 120.791 33.5242L120.078 41.9493C119.841 44.7606 118.701 58.3501 116.17 58.6112C113.639 58.8723 110.961 52.3699 110.294 45.572C110.044 43.0068 109.972 40.5956 110.1 37.5717C110.098 37.5353 110.114 37.498 110.121 37.4611C110.161 37.3677 110.239 37.1446 110.208 36.8912C110.136 36.2025 109.514 35.9186 109.008 35.9745C108.111 36.0705 108.165 37.1065 108.208 37.9153C108.209 37.9335 108.209 37.9425 108.21 37.9607C108.063 40.6121 107.006 43.1324 105.327 45.1774L104.975 45.6074L104.774 44.8349C104.513 43.9473 104.165 43.092 103.713 42.2881C103.23 41.4312 102.635 40.6263 101.947 39.9359C101.27 39.2723 100.484 38.7515 99.6093 38.418C98.7344 38.0754 97.8137 38.0544 96.8449 38.3095C95.7182 38.619 94.6457 39.281 93.644 40.2762C92.6007 41.3284 91.6615 42.4932 90.8329 43.7247C89.9795 44.9941 89.2273 46.3215 88.5398 47.6909C88.0952 48.5818 87.6913 49.3975 87.337 50.1375C87.1915 50.4282 86.759 50.3523 86.733 50.0257C86.7273 49.9166 86.7212 49.7985 86.7056 49.6718L86.5329 47.3848C86.4738 46.5952 86.4533 45.8581 86.4182 45.1856C86.4069 44.9675 86.4166 44.8121 86.4179 44.6662C86.4156 44.6207 86.431 44.5743 86.4464 44.5278C86.9921 43.3487 87.4923 42.1539 87.947 40.9435C88.0106 40.7941 88.0302 40.6563 88.0405 40.5099C88.1916 40.155 88.316 39.8017 88.4573 39.4292C89.1708 37.5297 89.8116 35.607 90.3708 33.6615C90.9923 31.5394 91.5318 29.3854 91.9996 27.2264C92.4823 25.0118 92.87 22.8573 93.1255 20.7376C93.3909 18.6355 93.5566 16.6758 93.5574 14.8073C93.5671 12.9384 93.3774 11.3542 93.0496 10.0329C92.9177 9.55725 92.723 9.07607 92.5039 8.64182C92.2849 8.20758 91.997 7.82278 91.6749 7.46726C91.3364 7.13999 90.9493 6.90662 90.5139 6.77621C90.3237 6.72313 90.1259 6.69782 89.9296 6.69976C89.7778 6.6992 89.6555 6.5785 89.6296 6.42502C89.4462 5.30521 89.2053 4.27979 88.8998 3.3856C88.7121 2.86757 88.4818 2.38839 88.1901 1.93089C87.9167 1.48148 87.5739 1.07244 87.1727 0.7396C86.7808 0.415348 86.3412 0.203154 85.8534 0.09393C85.3665 0.00288075 84.7888 0.0536588 84.1583 0.289695C83.3076 0.583708 82.623 1.32406 82.0942 2.484C81.5833 3.64293 81.168 5.09723 80.901 6.82571C80.9029 6.86206 80.9053 6.90749 80.9057 6.91658C80.7239 6.85392 80.5257 6.81951 80.328 6.7942C79.8528 6.75717 79.3591 6.87613 78.8106 7.14401C78.071 7.51379 77.5208 8.26479 77.1865 9.38643C76.8521 10.5081 76.6458 11.8595 76.5778 13.4674C76.5193 15.257 76.577 17.0492 76.7505 18.8349C76.9423 20.8018 77.1978 22.7925 77.5298 24.8792C77.8604 26.9385 78.2345 28.9772 78.6536 31.0225C79.0712 33.0405 79.4823 34.9313 79.8867 36.6948C80.2127 38.1529 80.5649 39.6004 80.9265 41.0565C81.0994 41.8033 81.4011 42.6248 81.5145 43.4295C81.6212 44.1071 81.9426 44.9639 82.0672 45.6404C82.2156 46.2609 82.3921 46.9072 82.5734 47.6443C82.5955 47.7251 82.5824 47.817 82.5417 47.8922C82.2065 48.4853 81.8536 49.0793 81.4908 49.6557C81.3593 49.8728 81.0458 49.854 80.9356 49.6232L80.8948 49.5253C80.5331 48.7527 80.0285 47.9791 79.3894 47.1949C78.7785 46.4364 78.0378 45.7581 77.241 45.2015C76.4629 44.662 75.6039 44.2821 74.6751 44.1065C73.7642 43.93 72.8506 44.0453 71.9269 44.4801C70.8725 44.977 69.9331 45.7955 69.1101 46.9629C68.2692 48.1313 67.5508 49.4204 66.9279 50.8317C66.3047 52.234 65.7901 53.6665 65.3664 55.1304C65.0783 56.1127 64.8296 56.9926 64.5944 57.7896C64.5036 58.1046 64.0571 58.1024 63.9867 57.7783C63.9627 57.6612 63.9298 57.5446 63.896 57.4097C63.7251 56.6994 63.5344 55.9537 63.3433 55.1988C63.1719 54.4794 62.993 53.7877 62.8483 53.0667C62.7158 52.4089 62.6757 51.9828 62.7482 51.8328C63.1513 50.4886 63.514 48.8823 63.8812 47.0206C64.2502 45.0221 64.5569 43.027 64.7732 41.0098C65.0072 38.8183 65.1779 36.6122 65.2853 34.3915C65.3641 32.1359 65.383 29.9292 65.2816 27.8114C65.189 25.693 64.9972 23.7261 64.6785 21.8939C64.3598 20.0617 63.9143 18.5374 63.341 17.3029C63.1299 16.8499 62.8579 16.4278 62.5602 16.0253C62.2896 15.6304 61.924 15.2956 61.5344 15.0168C61.1632 14.746 60.718 14.598 60.2602 14.5508C59.7842 14.4956 59.289 14.5873 58.732 14.8648C57.9737 15.2174 57.4048 15.9512 57.0245 17.0481C56.6442 18.145 56.4028 19.5075 56.2809 21.1093C56.1581 22.693 56.1619 24.4791 56.2835 26.4682C56.3952 28.4397 56.6076 30.4601 56.8496 32.5336C57.1001 34.5975 57.4212 36.6483 57.7602 38.6981C58.1165 40.7377 58.4657 42.6411 58.8083 44.4173C59.1232 46.1768 59.4539 47.7258 59.7644 49.0571C59.9302 49.8407 60.4956 51.0939 60.0963 51.8273C59.9578 52.0812 59.8197 52.3442 59.6811 52.5981C59.5758 52.8045 59.4621 53.0205 59.4472 53.2492C59.4357 53.5415 59.5928 53.8152 59.7574 54.0611C59.9304 54.2975 60.4288 54.7798 60.6788 54.4376C60.719 54.3533 60.779 54.3043 60.8192 54.22C60.9343 54.7148 61.0315 55.2106 61.1499 55.769C61.3448 56.5965 61.5491 57.4326 61.7619 58.2591C62.1952 59.8935 62.7696 61.4925 63.0887 63.1606C63.4078 64.8287 63.0391 66.49 62.7331 68.1569C62.5043 69.4184 62.0339 72.8991 60.3089 73.0328C56.736 73.3435 55.0165 64.3355 54.5592 60.187C54.5573 60.1507 54.5554 60.1143 54.5713 60.077C54.5942 60.0028 54.6218 59.8463 54.6025 59.6468C54.5375 59.0854 54.2902 58.4523 53.3668 58.5499C52.2662 58.6757 51.9771 59.4667 52.0469 60.119C52.2188 60.8475 52.3257 61.8714 52.5532 63.1527C52.5546 63.18 52.556 63.2073 52.5575 63.2345C52.2416 67.2807 51.235 76.9163 47.658 77.3183C43.8949 77.7491 42.5852 71.6345 42.319 69.0976C42.0209 66.289 42.259 60.7525 43.9706 55.9076C45.4722 51.6579 47.7575 47.8835 50.509 47.5736C53.8195 47.1956 54.6818 50.8929 54.9616 53.5202C55.0172 54.073 54.9932 54.6395 55.0488 55.1923C55.0497 55.2105 55.0502 55.2195 55.0512 55.2377C55.0859 55.3907 55.331 56.3247 56.0853 56.2367C56.9108 56.1446 57.0323 55.5636 56.8363 53.688C56.589 51.3414 55.6622 45.3784 50.4346 45.9737C46.485 46.4241 43.743 50.3427 42.0827 54.8019C40.3523 59.4564 39.825 64.9272 40.2631 69.0494C40.7289 73.3614 43.0742 79.6455 47.9378 79.0889C50.0058 78.8539 53.0126 76.7614 53.6505 68.9603C53.677 68.6125 54.1465 68.5405 54.2619 68.8712C55.3168 71.8103 57.0928 75.3923 60.421 75.0133C61.7258 74.8669 62.6173 73.8141 63.1925 72.688C63.9123 71.253 64.3031 69.6725 64.5421 68.0914C65.1069 64.3684 65.8287 60.5728 66.8972 56.9217C67.2217 55.7823 67.5739 54.6597 67.9879 53.5245C68.3846 52.3993 68.8385 51.3439 69.3584 50.3576C69.8784 49.3713 70.4144 48.5208 71.0437 47.7471C71.6655 47.0012 72.323 46.4264 73.0818 46.0829C73.7179 45.7828 74.3312 45.73 74.9203 45.8973C75.5004 46.0651 76.053 46.3894 76.5307 46.8182C77.0173 47.2465 77.4636 47.7591 77.8411 48.3211C78.2369 48.8912 78.5422 49.4391 78.7735 49.9364C79.1534 50.7171 79.428 51.531 79.6515 52.3933C79.674 52.4832 79.6614 52.5842 79.6029 52.6604C79.1221 53.371 78.5416 54.224 77.8802 55.2365C77.1859 56.3055 76.4763 57.4209 75.7184 58.6393C74.961 59.8668 74.2673 61.1181 73.6116 62.4127C72.9714 63.661 72.4131 64.9411 71.9547 66.252C71.5122 67.5255 71.2533 68.7249 71.1523 69.8699C71.0785 71.0224 71.2032 72.0453 71.6526 72.9587C71.8745 73.4475 72.2008 73.8848 72.6185 74.1893C73.0192 74.5131 73.4692 74.752 73.9865 74.9143C75.002 75.2125 76.0951 75.1145 77.0712 74.6585C78.0736 74.1918 78.91 73.452 79.6333 72.427C80.3566 71.4019 80.9117 70.2314 81.3331 68.8952C81.7694 67.5035 82.0792 66.0825 82.2808 64.6403C82.4969 63.1334 82.5977 61.6421 82.618 60.1463C82.6387 58.6595 82.5756 57.2777 82.4624 55.9626C82.3708 54.7191 82.1725 53.6548 81.9485 52.7834C81.9259 52.6935 81.939 52.6016 81.9886 52.5259C82.2943 52.053 82.5911 51.5806 82.8874 51.0991C83.0269 50.8634 83.3774 50.9074 83.4623 51.1669C83.6445 51.7491 83.8256 52.3131 84.0152 52.8674C84.3644 53.9141 85.6676 57.5045 87.2619 55.5463C88.386 54.1614 88.9438 51.332 89.7507 49.6825C90.2748 48.6048 90.8187 47.5625 91.4075 46.5268C91.9715 45.5289 92.6077 44.5452 93.2927 43.6408C93.9196 42.8217 94.6201 42.044 95.3787 41.3541C96.1139 40.7294 96.877 40.2945 97.6771 40.058C98.3549 39.874 98.9641 39.9126 99.5232 40.191C100.082 40.4693 100.55 40.8714 100.969 41.3764C101.38 41.8909 101.704 42.456 102.014 43.0947C102.288 43.7355 102.506 44.3156 102.631 44.8372C102.862 45.6717 103.005 46.5295 103.078 47.4095C103.083 47.5094 103.052 47.6023 102.984 47.67C102.264 48.4032 101.553 49.1542 100.869 49.9036C99.9458 50.867 99.051 51.8562 98.1847 52.8802C97.2413 53.9632 96.3175 55.0816 95.4673 56.2415C94.6236 57.3553 93.8549 58.5379 93.1772 59.7518C92.5336 60.9364 92.0648 62.0474 91.7665 63.1761C91.4766 64.2953 91.4674 65.3166 91.7153 66.3051C91.8599 66.8529 92.1066 67.3038 92.4489 67.7038C92.7818 68.0952 93.1816 68.4008 93.6592 68.6564C93.6592 68.6564 93.6775 68.6645 93.6869 68.6731C94.1719 68.9009 94.6443 69.0566 95.1728 69.0906C95.7107 69.1332 96.235 69.0854 96.7639 68.9554C97.8381 68.667 98.7889 68.0666 99.6631 67.197C100.57 66.2619 101.352 65.1788 101.934 64.0068C102.616 62.7015 103.171 61.3578 103.607 59.9661C104.059 58.528 104.43 57.0853 104.719 55.6017C104.987 54.2377 105.174 52.8509 105.288 51.441C105.392 50.1865 105.399 49.1197 105.334 48.2211C105.33 48.1302 105.361 48.0464 105.42 47.9793C105.47 47.9218 105.53 47.8637 105.58 47.7971C106.388 47.0225 107.213 45.8914 107.884 44.7325C108.04 44.4595 108.447 44.555 108.472 44.8726C108.519 45.4259 108.567 46.0156 108.637 46.6679C109.308 53.5385 112.563 60.8286 116.596 60.4464C116.614 60.4454 116.64 60.4439 116.658 60.4429C120.713 59.4398 121.518 46.7988 121.839 42.3422C121.934 41.4072 121.991 40.4561 122.03 39.4879C122.046 39.1133 122.57 39.0564 122.661 39.425C126.18 54.8754 126.91 57.7417 127.572 60.5206C127.618 60.7094 127.493 60.8896 127.307 60.9183C120.494 61.9129 110.249 64.0578 110.67 68.3723C111.185 73.6203 119.957 76.2795 124.175 75.8413C127.123 75.5385 131.078 74.1673 130.38 66.9336C130.267 65.8007 130.063 64.4542 129.742 62.7498C129.705 62.5604 129.839 62.3798 130.016 62.3606C131.073 62.2555 132.255 62.1343 133.501 62.0731C133.59 62.0681 133.672 62.1 133.729 62.1606C133.879 62.2979 134.213 62.5343 134.701 62.4795C134.87 62.4699 137.05 62.1466 137.098 60.8406C137.098 59.993 133.017 60.3141 129.527 60.6748C129.367 60.6838 129.218 60.5828 129.183 60.4207L129.171 60.3667ZM61.6834 48.0194L61.6403 48.0491C61.3862 46.9424 61.1381 45.6075 60.8223 44.003C60.5243 42.3975 60.2127 40.7017 59.9114 38.8594C59.5997 36.9903 59.3315 35.1006 59.0995 33.218C58.8688 31.3626 58.6832 29.5138 58.5584 27.6342C58.4211 25.8556 58.3775 24.1629 58.4399 22.6191L58.4829 22.5893C58.5266 21.0284 58.6744 19.7532 58.9156 18.7279C58.9352 18.5901 58.987 18.3867 59.0558 18.1641C59.133 17.9319 59.1919 17.6916 59.3047 17.4574C59.4071 17.1964 59.5293 16.9708 59.6435 16.7638C59.7408 16.5761 59.894 16.4307 60.0766 16.3384C60.2336 16.2658 60.4032 16.2653 60.5672 16.329C60.7406 16.4013 60.8629 16.522 60.9867 16.6699C61.0927 16.8189 61.1804 16.9598 61.2859 17.0997C61.2864 17.1088 61.3051 17.1259 61.3145 17.1345C61.3839 17.2673 61.443 17.3733 61.4918 17.4526C61.5016 17.4703 61.511 17.4789 61.5209 17.4966C62.0552 18.6695 62.4842 20.0489 62.7822 21.6544C63.0816 23.2872 63.2971 25.0249 63.3858 26.8974C63.4848 28.7967 63.5046 30.7186 63.4434 32.6269C63.3747 34.5629 63.2601 36.4742 63.1014 38.3971C62.9141 40.2851 62.7291 42.0455 62.485 43.6997C62.2839 45.1511 62.0195 46.5878 61.7106 48.027L61.6834 48.0194ZM80.5895 59.0849L80.5914 59.1212C80.6264 60.4772 80.5541 61.8302 80.4012 63.1785C80.2379 64.5002 79.9496 65.8197 79.5881 67.1069C79.2079 68.377 78.7003 69.5995 78.0178 70.7225C77.7585 71.2293 77.3821 71.7153 76.9794 72.212C76.5669 72.6909 76.0695 73.0835 75.5121 73.3519C75.0156 73.5895 74.5626 73.6332 74.1881 73.472C73.8048 73.3113 73.5019 72.9821 73.2725 72.5211C72.9803 71.8813 72.8946 71.0932 73.005 70.1301C73.1427 69.1744 73.4017 68.1482 73.782 67.0513C74.1628 65.9635 74.649 64.8424 75.2485 63.6694C75.842 62.5514 76.4443 61.4329 77.057 60.3411C77.6889 59.2756 78.2717 58.2949 78.8414 57.4061C79.1967 56.8575 79.5099 56.3568 79.7908 55.9217C79.956 55.6663 80.3356 55.7543 80.369 56.0532C80.4909 57.0215 80.5524 58.0297 80.5895 59.0849ZM80.4213 12.6948C80.3574 14.8949 80.3746 17.1086 80.4358 19.3108C80.5177 21.5665 80.6267 23.8297 80.8154 26.0794C80.9863 28.33 81.1754 30.4156 81.3667 32.3734C81.4267 33.1812 81.5377 33.9405 81.6239 34.7377C81.3744 33.5487 81.1333 32.3501 80.8604 31.0531L80.8337 31.0546C80.4883 29.2239 80.1503 27.3654 79.8456 25.4596C79.5532 23.6168 79.3043 21.7533 79.1191 19.9136C78.9283 18.138 78.8496 16.4563 78.822 14.8994C78.7944 13.3425 78.9145 12.0506 79.1454 10.9986C79.165 10.8608 79.1991 10.6584 79.2767 10.4352C79.3361 10.204 79.395 9.96376 79.5064 9.7023C79.592 9.46051 79.7048 9.2263 79.8265 8.9916C79.9154 8.81342 80.0587 8.65041 80.2493 8.53941C80.4666 8.42691 80.7184 8.63146 80.6866 8.87933C80.5388 10.1545 80.4533 11.4262 80.4128 12.7044L80.4213 12.6948ZM89.2469 22.2047C89.566 19.7624 89.7895 17.3711 89.9025 15.0862C90.0151 12.7922 89.9914 10.6244 89.8342 8.63731L89.8314 8.58279C89.8314 8.58279 89.9616 8.51166 90.0314 8.48038L90.067 8.47837C90.2338 8.42341 90.4053 8.45931 90.5445 8.56084C90.6926 8.66186 90.8164 8.80982 90.8863 8.95171C90.9843 9.11935 91.0551 9.27941 91.1082 9.44048C91.1607 9.59245 91.203 9.71767 91.2339 9.79795C91.2344 9.80704 91.2349 9.81613 91.2353 9.82521C91.55 11.0652 91.741 12.5036 91.756 14.1615C91.7762 15.9194 91.6535 17.6762 91.4498 19.4193C91.2362 21.3179 90.9239 23.2039 90.522 25.0858C90.1384 26.9758 89.6826 28.8516 89.173 30.7214C88.7003 32.4432 88.1905 34.1398 87.6546 35.847C87.3622 36.7475 87.0427 37.6405 86.7138 38.5249C86.588 38.8509 86.1105 38.7685 86.1014 38.4227C86.0791 37.9955 86.0733 37.5402 86.0482 37.0586L86.0758 37.0752C86.2058 36.6578 86.3433 36.2125 86.4789 35.731C87.0737 33.6103 87.6141 31.4746 88.0552 29.317C88.5397 26.9656 88.9427 24.5915 89.2473 22.2138L89.2469 22.2047ZM86.1589 28.2208C86.2009 27.143 86.1994 26.0859 86.2489 24.9803C86.3443 23.0427 86.4969 21.1749 86.6796 19.3691C86.872 17.581 87.0988 15.9368 87.4114 14.3972C87.5964 13.4936 87.7862 12.6809 88.0346 11.9651C88.0387 12.5573 88.0338 13.1499 88.0117 13.7527C87.9417 15.8347 87.7728 17.904 87.5055 19.9697C87.2569 22.0526 86.9367 24.1304 86.5532 26.1935C86.4285 26.8841 86.2836 27.5302 86.1589 28.2208ZM84.0666 24.3923L84.0675 24.4105C83.9678 26.2663 83.9211 28.11 83.9371 29.9592C83.9461 30.1319 83.9298 30.3333 83.9206 30.4979C83.8616 31.4217 83.8106 32.3269 83.7394 33.1876C83.7012 32.7978 83.6803 32.398 83.6333 32.0087C83.4457 30.1236 83.3032 28.245 83.1957 26.3554C83.0554 24.3491 82.947 22.2681 82.8914 20.175C82.8256 18.0551 82.8188 16.0413 82.8589 14.0704C82.8676 13.7236 82.8946 13.3848 82.9038 13.0471C82.9793 13.298 83.0455 13.5404 83.1211 13.7913L83.0855 13.7933L83.0593 13.8039C83.4111 15.4155 83.6628 17.1603 83.8391 19.0005C83.9769 20.7882 84.0618 22.588 84.075 24.3828L84.0666 24.3923ZM83.5025 9.63207C83.4326 9.49018 83.3182 9.3508 83.2122 9.20184C83.1738 9.14932 83.1522 9.07762 83.1578 9.01351C83.1699 8.90346 83.1904 8.78382 83.1941 8.68336C83.3928 7.01341 83.6862 5.62066 84.0665 4.52377L84.0646 4.48742L84.029 4.48943C84.0664 4.35061 84.1357 4.13709 84.2395 3.90339C84.3158 3.65301 84.4464 3.4178 84.5755 3.15533C84.5755 3.15533 84.575 3.14624 84.5835 3.13666C84.722 2.88277 84.8699 2.63747 85.038 2.43661C85.1874 2.21857 85.3588 2.08131 85.5518 2.01575C85.7185 1.96079 85.9153 1.96793 86.0808 2.05886C86.2556 2.15838 86.3784 2.28817 86.4952 2.47298C86.6021 2.64012 86.6997 2.79868 86.7996 3.00267C86.8798 3.17132 86.923 3.31471 86.9633 3.40358C86.9633 3.40358 86.9638 3.41266 86.9643 3.42175C87.3726 4.57445 87.6488 5.93511 87.8357 7.46485C87.8409 7.56481 87.8105 7.66677 87.7431 7.74349C87.4462 8.04275 87.1883 8.40362 86.9528 8.85436C86.3902 9.87948 85.9313 11.1813 85.5396 12.7436C85.3858 13.3903 85.2433 14.0819 85.1027 14.8098C85.0745 14.6109 85.027 14.3857 85.0082 14.1954L84.9805 14.1787C84.6173 12.349 84.1104 10.8464 83.5025 9.63207ZM102.887 54.2011L102.888 54.2192C102.682 55.5706 102.403 56.8988 101.998 58.2067C101.61 59.4954 101.104 60.7452 100.497 61.9551C99.8993 63.1645 99.1887 64.2617 98.329 65.2398C97.9432 65.7172 97.5106 66.1518 97.0483 66.5332C96.5351 66.9632 95.9875 67.2492 95.3972 67.401C94.8613 67.5679 94.411 67.493 94.0688 67.2662C93.7173 67.0308 93.4744 66.6526 93.342 66.1679C93.1547 65.4858 93.2287 64.6796 93.4938 63.7715C93.7852 62.8528 94.2082 61.8902 94.7891 60.8731C95.3943 59.8092 96.0642 58.7871 96.8171 57.815C97.5774 56.8152 98.3556 55.8144 99.189 54.8469C99.9199 53.9672 100.687 53.1037 101.437 52.2503C101.885 51.7603 102.282 51.3278 102.637 50.9341C102.839 50.7131 103.205 50.8748 103.185 51.1767C103.13 52.1823 103.023 53.2 102.879 54.2107L102.887 54.2011ZM123.899 74.1525C120.356 74.5162 112.717 72.1851 112.332 68.224C112.198 66.8462 114.555 65.6471 117.018 64.7791C120.624 63.5552 124.215 62.9154 127.669 62.5476C127.829 62.5385 127.978 62.6396 128.013 62.8107C128.329 64.4152 128.635 66.0111 128.77 67.3889C129.119 71.0057 127.265 73.8079 123.89 74.153L123.899 74.1525Z" fill="#DD78A7"/>
<path d="M125.752 28.3591C126.187 28.4896 126.45 28.5478 126.708 28.5242C127.126 28.4824 127.268 28.1186 127.325 27.8508C129.636 20.9057 131.737 17.12 131.665 16.4307C131.631 16.1315 131.505 15.9288 131.291 15.7766C130.623 15.3125 129.704 15.6927 129.459 16.4728C129.259 17.0953 129.172 17.8392 129.034 18.2666C127.801 22.2225 125.728 27.2291 125.6 27.6743C125.524 27.7698 125.546 28.024 125.56 28.1144C125.564 28.1963 125.752 28.3591 125.752 28.3591Z" fill="#DD78A7"/>
<path d="M139.305 41.2251C137.599 38.5383 136.304 36.6769 135.355 34.7778C135.354 34.7596 135.344 34.751 135.335 34.7333C135.219 34.4022 135.099 33.9892 135.064 33.6536C134.911 32.102 135.267 31.3703 135.149 29.2875C135.019 27.9992 134.6 27.1651 133.493 27.2001C132.14 27.3401 131.932 28.6657 132.013 29.5279C132.266 32.1415 132.982 33.8803 133.134 34.2185C133.154 34.263 133.166 34.3079 133.159 34.3539C133.089 41.2375 132.389 47.3718 132.025 49.9927C132.006 50.1398 131.895 50.2464 131.754 50.2726C131.602 50.2903 131.524 50.3221 131.411 50.3923C131.411 50.3923 130.842 50.6251 130.9 51.2331C130.909 51.4059 130.936 51.5778 131.034 51.7456C131.034 51.7456 133.774 57.1115 139.895 57.004C139.904 57.0035 139.922 57.0025 139.931 57.002C142.786 56.6953 144.316 54.985 144.194 51.9718C144.193 51.9536 144.192 51.9354 144.192 51.9172C143.531 47.8212 141.62 44.7992 139.304 41.216L139.305 41.2251ZM139.667 55.5479C139.409 55.5624 135.608 55.74 133.402 51.8678C133.363 51.797 133.349 51.7156 133.363 51.6418C134.404 46.0449 134.688 40.8555 134.772 38.1774C134.782 37.8575 135.196 37.7429 135.363 38.0164C138.019 42.4745 141.681 48.0257 142.03 51.6374C142.205 53.4433 141.455 55.3469 139.693 55.5373C139.685 55.5378 139.676 55.5383 139.667 55.5388L139.667 55.5479Z" fill="#DD78A7"/>
<path d="M79.3709 83.3861V85.3607C78.4677 84.5552 77.5359 84.1508 76.5724 84.1508C75.5102 84.1508 74.6166 84.5586 73.8883 85.3743C73.1569 86.1865 72.7912 87.1789 72.7912 88.3514C72.7912 89.5239 73.1569 90.4891 73.8883 91.2843C74.6198 92.0796 75.5166 92.4806 76.5787 92.4806C77.1289 92.4806 77.5932 92.3855 77.978 92.1951C78.191 92.1 78.4137 91.9708 78.6426 91.8077C78.8716 91.6446 79.1133 91.4509 79.3677 91.2198V93.2317C78.4741 93.7721 77.5391 94.0406 76.5565 94.0406C75.0777 94.0406 73.8184 93.49 72.7753 92.3889C71.7354 91.2775 71.2139 89.9385 71.2139 88.3684C71.2139 86.9614 71.6495 85.7073 72.5209 84.6062C73.5926 83.257 74.9791 82.5806 76.6773 82.5806C77.6059 82.5806 78.5027 82.8491 79.3677 83.3895L79.3709 83.3861Z" fill="#6E7C9D"/>
<path d="M83.3692 88.2734C83.3692 86.7417 83.918 85.4275 85.0123 84.3306C86.1033 83.2336 87.4132 82.6819 88.9452 82.6819C90.4773 82.6819 91.7545 83.237 92.839 84.3439C93.9268 85.4509 94.4691 86.7819 94.4691 88.3369C94.4691 89.892 93.9235 91.2263 92.8325 92.3132C91.7382 93.4068 90.4152 93.9552 88.8636 93.9552C87.4916 93.9552 86.2601 93.4703 85.1691 92.4971C83.967 91.4236 83.3659 90.0157 83.3659 88.2734H83.3692ZM84.9861 88.2968C84.9861 89.4974 85.3814 90.4873 86.1686 91.2598C86.9526 92.0356 87.8575 92.4202 88.8864 92.4202C90.0004 92.4202 90.9411 92.0256 91.7055 91.2364C92.4699 90.4371 92.8554 89.4673 92.8554 88.3202C92.8554 87.1731 92.4764 86.1899 91.7219 85.404C90.9705 84.6148 90.0396 84.2202 88.9289 84.2202C87.8183 84.2202 86.8906 84.6148 86.1294 85.404C85.3683 86.1832 84.9894 87.1464 84.9894 88.2901L84.9861 88.2968Z" fill="#6E7C9D"/>
<path d="M98.6667 88.2734C98.6667 86.7417 99.2154 85.4275 100.31 84.3306C101.401 83.2336 102.711 82.6819 104.243 82.6819C105.775 82.6819 107.052 83.237 108.137 84.3439C109.224 85.4509 109.767 86.7819 109.767 88.3369C109.767 89.892 109.221 91.2263 108.13 92.3132C107.036 93.4068 105.713 93.9552 104.161 93.9552C102.789 93.9552 101.558 93.4703 100.467 92.4971C99.2644 91.4236 98.6634 90.0157 98.6634 88.2734H98.6667ZM100.284 88.2968C100.284 89.4974 100.679 90.4873 101.466 91.2598C102.25 92.0356 103.155 92.4202 104.184 92.4202C105.298 92.4202 106.239 92.0256 107.003 91.2364C107.767 90.4371 108.153 89.4673 108.153 88.3202C108.153 87.1731 107.774 86.1899 107.019 85.404C106.268 84.6148 105.337 84.2202 104.226 84.2202C103.116 84.2202 102.188 84.6148 101.427 85.404C100.666 86.1832 100.287 87.1464 100.287 88.2901L100.284 88.2968Z" fill="#6E7C9D"/>
<path d="M116.1 87.2266L120.233 82.8892H122.372L117.574 87.8119L122.402 93.7612H120.256L116.43 88.9255L116.1 89.2633V93.7612H114.497V82.8892H116.1V87.2266Z" fill="#6E7C9D"/>
<path d="M126.573 93.7579V82.8858H128.167C128.879 82.8858 129.445 82.9427 129.866 83.0564C130.294 83.1701 130.653 83.3607 130.947 83.6283C131.244 83.9058 131.48 84.2503 131.656 84.665C131.836 85.083 131.924 85.5044 131.924 85.9324C131.924 86.7116 131.633 87.3704 131.052 87.9122C131.617 88.1095 132.061 88.454 132.384 88.9489C132.714 89.4372 132.881 90.0057 132.881 90.6511C132.881 91.5005 132.587 92.2196 132.002 92.8048C131.649 93.166 131.254 93.4168 130.813 93.5572C130.333 93.6944 129.729 93.7612 129.004 93.7612H126.576L126.573 93.7579ZM128.174 87.5577H128.677C129.271 87.5577 129.709 87.4239 129.987 87.1531C130.264 86.8822 130.402 86.4842 130.402 85.9592C130.402 85.4341 130.258 85.0596 129.974 84.7954C129.69 84.5312 129.278 84.3974 128.736 84.3974H128.171V87.5577H128.174ZM128.174 92.2162H129.164C129.889 92.2162 130.421 92.0724 130.758 91.7781C131.114 91.4638 131.293 91.0658 131.293 90.5809C131.293 90.096 131.12 89.7181 130.777 89.397C130.444 89.0827 129.843 88.9255 128.984 88.9255H128.174V92.2129V92.2162Z" fill="#6E7C9D"/>
<path d="M136.971 88.2734C136.971 86.7417 137.52 85.4275 138.614 84.3306C139.705 83.2336 141.015 82.6819 142.547 82.6819C144.079 82.6819 145.356 83.237 146.441 84.3439C147.528 85.4509 148.071 86.7819 148.071 88.3369C148.071 89.892 147.525 91.2263 146.434 92.3132C145.34 93.4068 144.017 93.9552 142.465 93.9552C141.093 93.9552 139.862 93.4703 138.771 92.4971C137.569 91.4236 136.967 90.0157 136.967 88.2734H136.971ZM138.588 88.2968C138.588 89.4974 138.983 90.4873 139.77 91.2598C140.554 92.0356 141.459 92.4202 142.488 92.4202C143.602 92.4202 144.543 92.0256 145.307 91.2364C146.071 90.4371 146.457 89.4673 146.457 88.3202C146.457 87.1731 146.078 86.1899 145.323 85.404C144.572 84.6148 143.641 84.2202 142.53 84.2202C141.42 84.2202 140.492 84.6148 139.731 85.404C138.97 86.1832 138.591 87.1464 138.591 88.2901L138.588 88.2968Z" fill="#6E7C9D"/>
<path d="M152.268 88.2734C152.268 86.7417 152.817 85.4275 153.911 84.3306C155.002 83.2336 156.312 82.6819 157.844 82.6819C159.376 82.6819 160.654 83.237 161.738 84.3439C162.826 85.4509 163.368 86.7819 163.368 88.3369C163.368 89.892 162.823 91.2263 161.732 92.3132C160.637 93.4068 159.314 93.9552 157.763 93.9552C156.391 93.9552 155.159 93.4703 154.068 92.4971C152.866 91.4236 152.265 90.0157 152.265 88.2734H152.268ZM153.885 88.2968C153.885 89.4974 154.28 90.4873 155.068 91.2598C155.852 92.0356 156.756 92.4202 157.785 92.4202C158.899 92.4202 159.84 92.0256 160.605 91.2364C161.369 90.4371 161.754 89.4673 161.754 88.3202C161.754 87.1731 161.375 86.1899 160.621 85.404C159.87 84.6148 158.939 84.2202 157.828 84.2202C156.717 84.2202 155.79 84.6148 155.028 85.404C154.267 86.1832 153.885 87.1464 153.885 88.2901V88.2968Z" fill="#6E7C9D"/>
<path d="M169.702 87.2266L173.834 82.8892H175.974L171.172 87.8119L176 93.7612H173.854L170.029 88.9255L169.699 89.2633V93.7612H168.098V82.8892H169.699V87.2266H169.702Z" fill="#6E7C9D"/>
</g>
<defs>
<clipPath id="clip0_157_9">
<rect width="176" height="96" fill="white"/>
</clipPath>
</defs>
</svg>
